<svg xmlns="http://www.w3.org/2000/svg" width="45.836" height="45.836" viewBox="0 0 45.836 45.836"><path d="M10.553 21.354l.722 3.281 3.583-1.717h.054v14.909h4.283V19.034h-3.672zm22.46 5.5c-1.326-.953-3.146-1.356-4.938-1.356-.463 0-.811.007-1.215.064l.404-2.881h7.312v-3.646H24.202l-1.24 9.86c.781-.116 1.501-.168 2.541-.168 3.756 0 5.286 1.188 5.286 3.123 0 1.993-1.937 2.86-3.755 2.86-1.704 0-3.408-.52-4.245-.923l-.781 3.293c1.041.548 2.948 1.068 5.229 1.068 5.055 0 8.06-3.091 8.06-6.585-.001-2.197-.867-3.756-2.284-4.709z"/><path d="M40.446 2.844v2.292c0 2.311-1.896 4.223-4.205 4.223h-.215c-2.31 0-4.225-1.913-4.225-4.223V2.54h-4.6v2.596c0 2.311-1.914 4.223-4.224 4.223h-.212c-2.312 0-4.208-1.913-4.208-4.223V2.54H13.88v2.596c0 2.311-1.853 4.223-4.163 4.223h-.214c-2.311 0-4.188-1.913-4.188-4.223V2.879A6.688 6.688 0 0 0 .716 9.258v29.886a6.686 6.686 0 0 0 6.708 6.691h30.997a6.678 6.678 0 0 0 6.699-6.691V9.258a6.728 6.728 0 0 0-4.674-6.414zm1.348 35.683c0 2.148-1.727 3.898-3.875 3.898H7.93c-2.148 0-3.881-1.75-3.881-3.898V17.295a2.62 2.62 0 0 1 2.64-2.624h32.472a2.614 2.614 0 0 1 2.634 2.624l-.001 21.232z"/><path d="M9.506 7.296h.213a2.158 2.158 0 0 0 2.18-2.161V2.164c0-.6-.235-1.144-.626-1.54-.004-.003-.004-.008-.007-.011-.003-.003-.004.012-.006.009a2.17 2.17 0 0 0-1.542-.62h-.213c-.603 0-1.147.227-1.544.62-.001.003-.003-.003-.006-.001-.004.004-.013.003-.016.005A2.18 2.18 0 0 0 7.3 2.163v2.973c0 .546.206 1.03.537 1.414a2.183 2.183 0 0 0 1.669.746zm12.009-.349l.018.007c.006.004.018-.008.023-.004.347.229.764.347 1.211.347h.213c.376 0 .729-.078 1.037-.245.004-.001.006.006.01.004.006-.004-.002-.004.006-.009a2.172 2.172 0 0 0 1.111-1.912V2.163c0-.713-.326-1.347-.854-1.748-.005-.003-.001-.007-.005-.01l.004.017a2.151 2.151 0 0 0-1.308-.419h-.213c-.567 0-1.083.199-1.472.552l-.002-.007c-.005.004-.024.004-.028.008a2.19 2.19 0 0 0-.723 1.608v2.974c-.001.75.395 1.414.972 1.809zm14.513.349h.213a2.21 2.21 0 0 0 1.678-.747c.331-.384.547-.867.547-1.414V2.164c0-.829-.477-1.55-1.154-1.924l-.018-.006a2.883 2.883 0 0 0-.238-.108l-.061-.023-.032-.011c-.022-.008-.047 0-.069-.007a2.19 2.19 0 0 0-.652-.083h-.213c-.113 0-.209-.007-.318.009a2.165 2.165 0 0 0-1.846 2.152v2.974a2.139 2.139 0 0 0 2.163 2.159z"/></svg>