<svg xmlns="http://www.w3.org/2000/svg" xmlns:xlink="http://www.w3.org/1999/xlink" viewBox="0 0 150.5 199.8"><defs><path id="a" d="M0 0h150.5v199.8H0z"/></defs><clipPath id="b"><use xlink:href="#a" overflow="visible"/></clipPath><path clip-path="url(#b)" d="M19.4 194l2.3-.4c.1.4.3.8.6 1 .3.2.7.3 1.2.3.6 0 1.1-.1 1.4-.3.2-.2.3-.4.3-.6 0-.2-.1-.4-.2-.4-.1-.1-.4-.2-.8-.3-1.8-.4-3.1-.8-3.5-1.2-.7-.5-1-1.2-1-2s.3-1.4.9-2c.5-.5 1.5-.7 2.8-.7 1.2 0 2.1.2 2.7.5.6.4 1 1 1.2 1.8l-2.2.4c-.1-.3-.2-.6-.5-.8-.3-.2-.6-.2-1.1-.2-.6 0-1 .1-1.3.2-.1.1-.2.3-.2.5s.1.3.2.4c.2.1.9.4 2.1.6 1.3.3 2.1.7 2.6 1 .5.4.7 1 .7 1.8s-.4 1.5-1 2.1c-.7.5-1.6.9-3 .9-1.2 0-2.1-.2-2.8-.7-.7-.5-1.2-1.1-1.4-1.9m14.3-6.3v1.8h-1.6v3.5c0 .8 0 1.2.1 1.3 0 .1.1.2.2.3.1.1.2.1.4.1s.5-.1.9-.2l.2 1.8c-.5.2-1.2.4-1.8.4-.4 0-.8-.1-1.1-.2-.4-.1-.6-.3-.8-.6-.1-.2-.2-.5-.3-.9v-5.5h-1.1v-1.8h1.1v-1.8l2.3-1.3v3.1h1.5zm7.4 8.8v-1.4c-.3.5-.7.9-1.3 1.1-.5.3-1 .4-1.7.4-.5 0-1.1-.1-1.6-.4-.4-.2-.8-.6-1-1-.2-.5-.3-1.2-.3-2v-5.6h2.3v4c0 1.2 0 2 .1 2.3.1.3.2.5.4.7.2.2.5.2.9.2s.8-.1 1.1-.4c.3-.2.5-.5.6-.8.1-.3.2-1.1.2-2.4v-3.7h2.3v8.8h-2zm3.5-8.8h1.3v-.7c0-.7.1-1.3.3-1.7.2-.4.4-.7.8-.9.4-.2 1-.3 1.6-.3.7 0 1.3.1 2 .3l-.3 1.6c-.4-.1-.7-.1-1-.1-.4 0-.6.1-.7.2-.2.1-.2.4-.2.9v.6H50v1.8h-1.8v7h-2.3v-7h-1.3v-1.7z"/><path clip-path="url(#b)" d="M50.2 187.7h1.3v-.7c0-.7.1-1.3.2-1.7.2-.4.5-.7.9-.9.4-.2 1-.3 1.7-.3s1.3.1 1.9.3l-.3 1.6c-.4-.1-.7-.1-1-.1-.4 0-.6.1-.7.2-.1.1-.2.4-.2.9v.6h1.8v1.8H54v7h-2.3v-7h-1.3v-1.7zm6.5 3.2h4.6v2.3h-4.6zm5 3.1l2.3-.4c.1.4.3.8.6 1 .3.2.7.3 1.3.3.6 0 1-.1 1.3-.3.2-.2.3-.4.3-.6 0-.2-.1-.4-.2-.4-.1-.1-.4-.2-.7-.3-1.9-.4-3.1-.8-3.6-1.2-.7-.5-1-1.2-1-2s.3-1.4.9-2c.6-.5 1.5-.7 2.8-.7 1.2 0 2.1.2 2.7.5.6.4 1 1 1.2 1.8l-2.1.4c-.1-.3-.3-.6-.6-.8-.2-.2-.6-.2-1.1-.2-.6 0-1.1.1-1.4.2-.2.1-.2.3-.2.5s.1.3.2.4c.2.1.9.4 2.2.6 1.2.3 2.1.7 2.6 1 .5.4.7 1 .7 1.8s-.3 1.5-1 2.1c-.7.5-1.7.9-3 .9-1.2 0-2.1-.2-2.8-.7-.7-.5-1.1-1.1-1.4-1.9m12.7-9.7v4.5c.8-.9 1.6-1.3 2.7-1.3.5 0 1 .1 1.4.2.4.2.8.5 1 .8.2.3.4.7.4 1 .1.4.1.9.1 1.7v5.2h-2.3v-4.7c0-.9 0-1.5-.1-1.8-.1-.2-.2-.4-.4-.6-.2-.1-.6-.2-.9-.2-.4 0-.7.1-1 .2-.3.2-.5.5-.7.8-.1.4-.2.9-.2 1.7v4.4H72V184h2.4zm12 3.2c1.3 0 2.4.4 3.3 1.3.8.8 1.2 2 1.2 3.2 0 1.4-.4 2.5-1.3 3.3-.9.9-1.9 1.3-3.2 1.3v-1.9c.6 0 1.2-.3 1.5-.7.4-.4.6-1.1.6-2 0-.9-.2-1.5-.6-2-.4-.5-.9-.7-1.5-.7v-1.8zm-4.6 4.4c0-.8.2-1.5.5-2.3.4-.7 1-1.3 1.7-1.7.7-.4 1.5-.5 2.3-.5v1.9c-.6 0-1.1.2-1.5.7-.4.4-.6 1.1-.6 2 0 .9.2 1.5.6 2 .4.5.9.7 1.5.7v1.9c-.8 0-1.5-.2-2.3-.6-.7-.4-1.3-.9-1.7-1.6-.3-.6-.5-1.5-.5-2.5m15.2-4.4c.2-.1.4-.1.6-.1 1 0 1.9.4 2.6 1.2.7.8 1 2 1 3.4 0 1.5-.4 2.6-1 3.4-.7.8-1.6 1.2-2.6 1.2-.3 0-.4-.1-.6-.1v-1.8c.6 0 1-.2 1.3-.7.4-.4.6-1.2.6-2.2 0-.9-.2-1.6-.6-2-.4-.5-.9-.7-1.4-.7v-1.6zm-4.3.2h2.2v1.3c.2-.4.6-.8 1.1-1.1.3-.1.6-.3 1-.3v1.8c-.6 0-1 .2-1.4.6-.4.5-.6 1.1-.6 2 0 1 .2 1.7.6 2.2.4.4.9.7 1.4.7v1.8c-.2-.1-.5-.1-.7-.2-.4-.2-.8-.5-1.2-1v4.4h-2.3v-12.2zm10.4 6.4h2.3v2.3h-2.3zm12.4-3.9l-2.3.4c0-.4-.2-.8-.5-1.1-.3-.2-.7-.4-1.1-.4-.5 0-1 .3-1.4.6-.4.4-.5 1.1-.5 2 0 1 .2 1.8.5 2.2.4.4.8.7 1.4.7.4 0 .8-.1 1.1-.4.2-.2.4-.7.6-1.4l2.3.4c-.2 1-.7 1.8-1.4 2.4-.7.5-1.5.8-2.7.8-1.3 0-2.3-.4-3.1-1.2-.8-.8-1.2-2-1.2-3.4 0-1.5.4-2.6 1.2-3.4.7-.8 1.8-1.2 3.1-1.2 1 0 1.9.2 2.6.7.7.7 1.1 1.4 1.4 2.3m5.8-2.7c1.4 0 2.4.4 3.3 1.3.9.8 1.3 2 1.3 3.2 0 1.4-.4 2.4-1.3 3.3-.9.9-2 1.3-3.3 1.3v-1.9c.6 0 1.1-.3 1.5-.7.4-.4.6-1.1.6-2 0-.9-.2-1.5-.6-2-.4-.5-.9-.7-1.5-.7v-1.8zm-4.6 4.4c0-.8.2-1.5.6-2.3.4-.7.9-1.3 1.6-1.7.7-.4 1.5-.5 2.3-.5v1.9c-.6 0-1.1.2-1.5.7-.4.4-.6 1.1-.6 2 0 .9.2 1.5.6 2 .4.5.9.7 1.5.7v1.9c-.8 0-1.6-.2-2.3-.6-.7-.4-1.3-.9-1.6-1.6-.4-.6-.6-1.5-.6-2.5m10.7-4.2h2.2v1.2c.8-.9 1.7-1.3 2.7-1.3.6 0 1 .1 1.5.3.4.2.7.6 1 1 .4-.4.8-.8 1.2-1 .4-.2.9-.3 1.4-.3.7 0 1.2.1 1.6.4.4.2.8.7 1 1.1.2.4.3 1 .3 1.9v5.6H138v-5.1c0-.9-.1-1.4-.3-1.7-.2-.4-.5-.5-1-.5-.3 0-.6.1-.9.3-.2.2-.5.5-.6.9-.1.4-.2 1-.2 1.8v4.2h-2.3v-4.8c0-.9-.1-1.4-.1-1.7 0-.3-.2-.4-.4-.6-.2-.1-.4-.2-.7-.2-.4 0-.7.1-1 .2-.2.2-.5.5-.6.8-.1.4-.2 1-.2 1.8v4.3h-2.3v-8.6z"/><path clip-path="url(#b)" fill-rule="evenodd" clip-rule="evenodd" d="M149.2 102.6v-7c.3 1.2.5 2.5.5 3.9 0 1.3-.1 2.6-.5 3.9v-.8zm0-13.8V63.4c.8 4.2 1.3 8.5 1.3 12.9 0 4.1-.5 8.3-1.3 12.5m0 13.8v.8c-.7 3.2-.7 3.2-3.4 6.4-4.9 8.5-19 8.4-19 8.4l-.6 50.5L21 170.4c-3.4-1.1-3-46.8-3.9-49.9l-2.3-10s.1-7.6-.3-12.8c-7.6-3-11.6-9.2-12.3-12.6v-.8.1-39.3c.4-1.2.9-2.4 1.5-3.6-.8-1.9-1.2-3.9-1.2-5.9 0-1.2.2-2.4.5-3.6-.1-.9-.3-1.8-.3-1.9-.2-.9-.3-1.8-.5-2.6v-11l.3-.5c1.3-2.6 3.6-4.6 6.5-5.6l.7-.2.8-.2c2-.3 4.2-.1 7.4.7.4.1 5.8.7 6.4.7 5.4-3.1 12.3-6.6 24.6-9.5C60.4-.8 72.1 0 83.2 1.3c3.7.5 17 3.1 26.5 6.9l.7.3s.4.1.5.2c2.6-1.2 7.2-3.2 7.2-3.2l.3-.1c3-1.2 6.1-1.1 8.9.2 2 .9 4.7 3 6 7.1l.4 1.2.3 7.5c.9 1 1.7 2.1 2.6 3.2 5.3 7.3 8.3 16.3 9 26.7.3.9.8 2.2.8 2.1l.5 1.4c1 2.8 1.8 5.6 2.3 8.5v25.4c-.3 1.3-.5 2.7-.9 4 .4.8.7 1.7.9 2.8v7.1zM2.2 16.5v11c-.5-3-.8-5-.8-6.6l.5-3.7.3-.7zm0 28.6v40.1C.7 78.4 0 71.2 0 63.2l.2-7.6c.2-3.7.8-7.2 2-10.5"/><path clip-path="url(#b)" fill-rule="evenodd" clip-rule="evenodd" fill="#FFF" d="M129.9 111.2v-3.6c4.3.1 8.2-.8 10-3.3.8-1 1.8-1.9 2.1-3.1.9-4-1.3-6.8-1.3-6.8.3-.8-.2-1.8 0-2.7 3.6-12.8 2.8-24.9-.9-35.2-.5-1.5-1-3.3-1.7-4.7-.4-10.3-3.3-18-7.6-23.8-.3-.4-.5-.8-.8-1.1v-4.6c1.2 1.3 2.3 2.6 3.4 4.1 4.9 6.7 7.7 15.2 8.1 25 .4.9.7 1.8.9 2.7l.5 1.6c2.2 6.4 3.4 13.1 3.4 19.9 0 5.7-.8 11.4-2.4 17.1l.4.3v.9c.7 1.2 1.4 3.1 1.4 5.6 0 .8-.1 1.7-.3 2.6-.3 1.7-1.3 2.9-2.1 3.8l-.5.5c-2.5 3.6-7.4 4.9-12.6 4.8m0-6.9c3.7.1 7.5-.5 8.6-3.6.7-1.6.1-4-1.2-7.4 4.1-14.9 3.3-27.6-1.9-39.6l-1-8.6c.2 6.5 0 12.1-1.1 16.3l1 1.2L132 67c1.4 7 .9 15-2.1 24v13.3zm0-21.9c.8-4.2 1-8.3.6-12.3l-.6 1.3v4.3l.1.4-.1.5v5.8zm0-17.6c.8-.5 1.8-1.2 2.8-2-.4-.4-1.6-2.2-2.8-3.6v5.6zm0-12.9c1.1-.7 2.4-1.7 3.8-3-.5-.5-2.2-2.5-3.8-3.7v6.7zm0-14.9c.7-.8 1.6-1.8 2.4-3-.4-.2-1.3-1-2.4-1.7V37zm0-14.6V27c-1.1-1.4-2.2-2.7-3.6-4l-.3-10c-.2-.8-.6-1.3-1-1.5v-3c.5 0 1 .2 1.3.4 1.3.6 2.2 1.7 2.8 3.5l.1.4s.3 7.3.3 9.2c.2.1.3.2.4.4m0 10V37c-2.4 2.6-4.2 3-4.6-1-.2-.6-.3-1.2-.4-1.7v-2.5c.6-2 3.1-.7 5 .6m0 12.8v6.7c-2.6 1.6-4.1 1.3-3.8-2.4-.3-6.1 1.8-5.9 3.8-4.3m0 14v5.6c-2.6 1.5-4.4 2.1-5 .7v-2.9c.5-7 2.9-5.7 5-3.4m0 12.2v4.3l-.9-2.5.9-1.8zm0 5.2v5.8c-.5 2.9-1.3 5.8-2.4 8.8-.7 2.2-1.6 4.4-2.6 6.6V79.3l.1-.1 2.5-.9 2-.6.4-1.1zm0 14.5c-.7 2-1.5 4-2.4 6.1-.8 1.7-1.7 3.6-2.6 5.5v1.2c.8.1 1.7.3 2.6.4.8.1 1.6.1 2.4.1V91.1zm0 16.5v3.6c-1.7 0-3.3-.2-5-.4v-3.6c1.7.2 3.4.4 5 .4M125 77.8c1.2-.3 2.6-.8 4.1-1.3-.5-.9-2.1-6.1-4.1-6.5v7.8zm0-69.3v3c-.4-.2-.9-.2-1.4 0l-4.5 2.1v-3.2l3.2-1.5c1-.4 1.9-.5 2.7-.4m0 23.3v2.5c-.2-1.1-.2-1.9 0-2.5m0 30.8v2.8c-.3-.6-.3-1.5 0-2.8m0 7.4v7.9c-3.5.9-5.2.2-3.4-3.5 1.2-3.6 2.3-4.7 3.4-4.4m0 9.3v18.6c-.8 1.8-1.6 3.6-2.5 5.5-.9-.5-2.2-1-3.4-1.3V84.6c1.9-1.3 3.9-3 5.9-5.3m0 23.3c-.2.4-.4.7-.5 1.1h.5v-1.1zm0 4.5v3.6c-2.1-.3-4.1-.8-5.9-1.4v-3.8h.1c1.7.7 3.7 1.3 5.8 1.6m-6-39.3v-1.4c1.1-6.4 1.1-13.3 0-19.1V30.5c4.5 13 3.3 29.7 0 37.3m0-48v-2.6l2.4-1.2 1.5.6.4 6.9s-.4-1.3-2.2-2.6c-.6-.4-1.3-.8-2.1-1.1m0-9.4v3.2l-6.1 2.7c-1.7-.2-3.6-1-5.6-1.9-1.2-.5-2.6-.9-3.9-1.4v-3c1.8.6 3.5 1.2 5.2 1.8l.7.3c1.2.5 2.3.9 3.3 1.2.8-.4 4-1.8 6.4-2.9m0 6.8v2.6c-1.4-.7-2.9-1.2-2.9-1.2l2.9-1.4zm0 13.3c-1.6-4.4-3.7-8.3-6.8-11.2-3-1.1-6-2.2-8.9-3.1v1.5c.3 0 .6 0 1-.1 9 2 12.6 11.5 6.2 16 4.3 1 7.2 6.5 8.5 13.6V30.5zm0 35.9v1.4c-.2.4-.4.7-.5 1l.5-2.4zm0 18.2V102c-4.1-1.1-9.2-1.1-11 .9-2.1 2.2-3.5 3.7-4.7 4.7V87c2 0 4.3.1 7.1.3 2.8 0 5.7-.7 8.6-2.7m0 21c-2.8-1.3-5.9-1.7-8-.5-1.7 1.1-3 2.9-4.9 4.6-.7.6-1.7 1.1-2.8 1.5v3.5l4.9-2.2 2.3-2.2c.8-.9 1.6-1.7 2.2-2.1.7-.5 2.7-.4 5 .7l.1.1h.1c.4.1.7.3 1 .4v-3.8zm-15.6-20.4V37.4l4.8-1.8c5.4-.2 9 7.4 9.4 17.8v5.5c-.4 14.1-4.4 28.7-12.9 26.3h-1.3zm0-55.5v-10c7.9 1.7 10.3 8.8 5.6 12.5l-1.6 2-1.5-.7c-.9-1.6-1.7-2.8-2.5-3.8m0-19.7v3c-1.7-.5-3.4-1.1-5.1-1.6v-3c1.6.5 3.4 1 5.1 1.6m0 6.2v1.5c-1.8.1-3.5.2-5.1.3v-3.3c1.6.4 3.3 1 5.1 1.5m0 3.5v10c-1.5-1.8-3.2-2.8-5.1-3.5v-6.9c1.8-.1 3.5.1 5.1.4m0 17.7v47.8h-5.1V68.9c1.1-8.7 2.4-11 2.8-17 .3-5.1-.5-8.1-2.8-10v-2.6l5.1-1.9zm0 49.6v20.5c-2.1 1.7-3.2 1.7-5.1 1.5v-1.7c1.4-6.4 1.1-10.9 0-15.5V88c.8-.7 2.6-.9 5.1-1m0 24.2v3.5l-.7.3-4.4.7v-3.4c1.7-.2 3.5-.6 5.1-1.1m-5.2-54.4c.5-2.7.7-5.2.5-7.8 0-.9-.2-1.7-.5-2.5v10.3zm0-48.4v3c-.4-.1-.8-.2-1.1-.3v-3c.3.1.7.3 1.1.3m0 6.3V18c-.4 0-.8 0-1.1.1v-3.7c.3 0 .7.1 1.1.3m0 4.7v6.9c-.4-.1-.7-.2-1.1-.3v-6.4c.3-.1.7-.1 1.1-.2zm0 19.9v2.6c-.4-.3-.7-.5-1.1-.7v-1.5l1.1-.4zm0 7.2v10.3c-.3 1.7-.7 3.4-1.1 5.4v.2-17.8c.5.6.8 1.2 1.1 1.9m0 22.4v16.3h-1.1v-4.1c.3-5.2.7-9.1 1.1-12.2m0 19.1v3.8c-.1-.5-.3-1.1-.4-1.6-.5-1-.3-1.7.4-2.2m0 19.3v1.7h-.4c.1-.6.3-1.2.4-1.7m0 4.9v3.4l-1.1.1v-3.4h.3c.2 0 .5 0 .8-.1m-1.1-79.4v-1.4c.3.2.4.4.4.5v.1c0 .3-.2.5-.4.8m0-24.7v3c-3.8-1-7.6-1.8-10.4-2.4v-3c2.7.6 6.5 1.4 10.4 2.4m0 6.3V18c-4.3.1-8 0-10.4-.5v-5.7c3.4.8 6.9 1.6 10.4 2.6m0 5.2V26c-1.9-.4-4.1-.5-6.8-.4l-3.6.2v-6.3c.5.1.9.3 1.4.3 3.5.5 6.6.3 9-.2m0 11.8v1.4c-.5.5-1.3 1-2.3 1.7-1.7.7-3.4 1.3-5.2 1.7.4-1.3.7-3.3.7-5.5l3.4-.1c1.7.2 2.9.5 3.4.8m0 8.4v1.4c-.5-.3-1.1-.5-1.7-.7l1.7-.7zm0 4.8c-1.6-1.9-4.2-3.2-7.6-3.6-1 .2-1.9.4-2.9.5v46.6c2.9-.7 5.6-1.7 8.3-2.6.7-6.1.3-13.4 1.5-19.9.2-1.2.5-2.2.7-3.3V44.6zm0 36.9v3.7h-.2c0-1.3.1-2.5.2-3.7m0 30.8v3.4l-2.1.3-6.2-.4-2.1-.5v-3.9c1.6.4 6 1.2 10.4 1.1m-10.5-4.4V90.6c1.7-.5 3.4-1.1 5.1-1.9 5.2-2 6.7 13.5 3.6 20.2-2.6.7-5.5.3-8.7-1m0-71.2v-5.8h1.1c0 1.8-.2 4.2-.9 5.8h-.2m0-31v3c-1.7-.4-3.2-.6-4.1-.7-3.9-.5-8-.9-12.2-1.1V4c4.3.2 8.5.6 12.6 1.1.8.1 2.1.3 3.7.6m0 6.1v5.7c-1-.2-1.8-.5-2.4-.9-5.6-.3-10.1-.3-13.9.4V9.9c5.4.2 10.8.9 16.3 1.9m0 7.7v6.3l-16.3.9v-7.4c4.2-.8 9-.7 14.2-.4.8.2 1.5.4 2.1.6m0 11.3v5.8c-.4.1-.8.1-1.1.1.1-1.5.2-4.1.1-5.9h1zm0 10.7v46.6c-3.6.9-7.4 1.6-11 1.7-1.8 0-3.5-.1-5.3-.4V40.2c5.1 1.7 10.6 2.2 16.3 1.3m0 49.1v17.3c-1.8-.8-3.8-1.9-5.8-3.3l-10.5-.2v-13c5.5.9 10.9.7 16.3-.8m0 20.7c-.3-.1-.5-.1-.6-.2-1.9-.8-4.3-2-6.4-3.4-3.1-.2-6.2-.3-9.3-.4v2.8l3.7.2 7.6 3.6 5.1 1.2v-3.8zM70.3 34.7v-3.4h2.6l1.6-.1c-.1 1.1.1 2.6 1.2 4.7-1.3-.2-2.7-.5-4-.9-.6-.1-1-.3-1.4-.3m0-30.7v2.9c-6.1-.3-12.5-.1-18.7 1.3v-3C57.8 4 64.1 3.7 70.3 4m0 5.9V17c-5 .9-8.7 2.8-12.2 6.6L55.6 25l-3.6-.1h-.4V11.3h.4c5.9-1.3 12-1.7 18.3-1.4m0 9.4c-1.8.3-3.5.8-5.1 1.5-2.5 1-4.2 3.1-6.1 4.5-2 1.4-4.1 2.1-5.9 2.1-.5 0-1.1-.1-1.6-.1v2.1c1.9.6 3.9 1.3 5.9 2.1-1.8-2.1 1.5-3.5 7.1-4.6l5.7-.3v-7.3zm0 11.9v3.4c-7.4-2.2-7.4-3.3 0-3.4m0 9v49.1c-5.2-.8-10.3-2.7-15.1-5.6-1.6-1.5-2.8-1.9-3.6-3.2V51.3c8.2-.1 10.6-5.9 8.9-15.8 3.2 2.1 6.4 3.7 9.8 4.7m0 51.2c-4.3-.7-8.7-2.1-13.1-3.9-2.2-.8-4.1-.8-5.3-.3-.1 0-.2.1-.4.2V97c.1.2.2.4.4.6 1.2 2 3 4.2 5.3 6.3l13.1.3V91.4zm0 15.9v2.8l-5.8-.3h-5.7l-3.6 1.5-1.7 2.5-1.9 1.5v-3.1c.3-.2.7-.5 1.1-1 1.1-1.1 1.5-2.3 2-3.1.4-.5 1.1-.8 1.1-.8 4.9-.2 9.7-.1 14.5 0m-18.7-3.6v-2.4l.4.4 2.2 2.1c-.8-.1-1.4-.1-2.2-.1h-.4zm0-71.1l.3.1-.3-.1zm0-27.3v3c-.3 0-.5.1-.8.2-4.8 1.2-8.7 2.4-12 3.6V8.9c3.1-1.2 6.8-2.3 11.2-3.4.6 0 1.1-.2 1.6-.2m0 6c-4.4.9-8.6 2.2-12.8 4v6.9c1.7.6 3.5 1.4 5.4 2.3l7.4.2V11.3zm0 16v2.1c-5.6-1.8-10.1-2.3-12.8-.4v-3.7c1.8.8 4 1.6 12.8 2m0 5.3c-5.7-.8-10.2-.5-12.8 1.6v-2.7c2.5-1.1 6.7-.7 12.8 1.1m0 18.7v29.3c-.8-1.3-1.2-3.5-1.1-8.5.7-6.4 0-13.5-1.4-20.9.9.1 1.7.1 2.5.1m0 36.2v9.6c-2.5-4.5-2.3-8.2 0-9.6m0 13.8l-.1-.1-3-5.9c-.3-2.8-.4-5.7-1.1-7.1-1.4-2.6-4.2-2.1-8.5-1.9v24.6c4.5.4 9 .4 10.3-2.3-.6-.2-.5-.9-1.1-1-8.4-.9-7-3.8 3.6-4v-2.3zm0 10.8v3.1l-1.5 1.2s-3.2.5-3.8.5h-7.5V114c4.8.1 9.4 0 10.5-.6 1.1-.5 1.6-.7 2.3-1.3M38.8 83.6V49.1c2.2.8 4.9 1.4 7.9 1.8 1.8 6.4 1.6 15.9 1.6 20.7 0 7.2-1.7 9.1-6.2 10.8-.9.5-2.1.9-3.3 1.2m0-74.7V12c-2.3.9-4.3 1.8-6.1 2.7v-3.3c1.8-.8 3.9-1.6 6.1-2.5m0 6.5v6.9c-2.2-.7-4.2-1.2-6.1-1.5v-2.4c2-1.1 4-2.1 6.1-3m0 9.9V29c-2.2-.2-4.2-.4-6.1-.5v-5c2.1.2 3.5.8 4.4 1.1.7.2 1.2.5 1.7.7m0 6.2v2.7c-1 .8-1.7 1.8-2.2 3.2-.5-3.1.2-5 2.2-5.9m0 17.6v34.5c-1.8.5-3.9.9-6.1 1.3V45.1c1.4 1.7 3.5 3 6.1 4m0 37.2v24.6c-2.2-.2-4.3-.4-6.1-.5V86.9l6.1-.6zm0 27.8v2.9h-6.1v-3.2c2 .1 4.1.2 6.1.3m-6.1-79.8v-1h.9s-.5.5-.9 1m0-22.8v3.3c-1.5.8-3 1.5-4.3 2.3v-3.4c1.3-.7 2.7-1.5 4.3-2.2m0 6.9v2.4c-1.1-.1-2.2-.3-3.4-.3 1.2-.7 2.3-1.4 3.4-2.1m0 5.1v5h-4.3v-5.1c1.7-.1 3.1 0 4.3.1m0 9.8v1c-.2.3-.5.7-.6.9-.3.8-.2-1.9-.2-1.9h.8zm0 11.8v39.8c-1.4.2-2.8.3-4.3.4V43.9c.5-.5 1-.9 1.5-1.4l1.3-.8c.2 1.3.7 2.4 1.5 3.4m0 41.8v23.5h-1.2c-1.5-4.1-2.6-8-3.1-11.6V87.3l4.3-.4zm0 26.9v3.2h-2.1s-1 0-2.2-.2v-3.3c1.2.1 2.7.2 4.3.3m-4.3-3.8h.6c-.2-.6-.4-1.2-.6-1.7v1.7zm0-96.3V17c-1 .6-1.9 1.1-2.9 1.7h-.2v-3.2c.9-.6 2-1.2 3.1-1.8m0 9.7v5.1c-1.1.1-2.1.2-3.1.3v-5c1-.1 2-.3 3-.4h.1zm0 20.5v41.4c-.5 0-1.1.1-1.6.1-.4-.2-.8-1-1.1-2.3-.2-.8-.3-1.7-.5-2.7V48.7c.1-.5.2-.9.4-1.3.7-1.6 1.7-2.6 2.8-3.5m0 43.4v11.5c-.7-4.1-.8-8-.4-11.5h.4zm0 20.9c-2.6-7.5-3-14.3-2.5-20.7l-.6.1V105l.3 3.2c.9 1.2 1.7 1.6 2.9 1.7v-1.7zm0 5.3v3.3l-2.1-.3c-.3-.1-.7-.1-1-.2V113c.5.1 1.6.3 3.1.5m-3.2-69.7v-1.7l.5.1 1.3.3c-.5.3-.9.6-1.3.8l-.5.5m0-6.6V33c.6 0 1.4 0 2.2.1l-.3 2.5.3 2.7c-.8-.3-1.6-.7-2.2-1.1m-.9-15.8l-5.5-.7v2.2c1.7-.7 3.6-1.2 5.5-1.5m.9-5.9v3.2l-6.4-.7v-2.9l6 .7.4-.3zm0 8.3v5c-3 .5-5.2 1.6-6.4 3.3v-6.7c1.9-.7 4-1.3 6.4-1.6m0 9.2v4.3c-2.9-1.8-3-4.1 0-4.3m0 9.1v1.7c-4.5 4.1-2.4 11-3 22.9-.4 7.7.6 15.1 2 19.2-1.4 0-3.5-.1-5.4-.5V39.6l.9-.4 3.4 2.4 2.1.5zm0 6.8c-.9 3.6-.8 9.4-.8 15.1 0 6 .3 12.2.8 16.4V48.9zm0 38.7V105l-1.5-17.3 1.5-.1zm0 25.4c-.3-.1-.4-.2-.5-.2-.8-1-2-.9-2.2-1.9L21 90.7c0-.9-.5-1.6-1.3-2.1-.3 0-.5-.1-.8-.1V106l.4 5.8v.2s.9 3.1 1.5 3.3c.4.2 2.7.6 4.4.9V113zm-6.4-92.3l-4-.5-1.5 1.4.7 4.7c1-1.4 2.8-2.5 4.8-3.4v-2.2zm0-5.6V18l-3.5-.4c-2.5-.7-3.8-.9-4.5-.7-.5.2-.9.4-1.2.9-.5 1.6 1.6 10.7 1.7 12.6-1.4 3.6-.3 6.6 1.9 9.2-2.9 4.3-4.7 9.3-4.9 14.9-.5 9.9-.1 19.3 1.8 28 .6 2.9 3 5 8.6 6V106l-1-14.1c-6.3-1.2-10-4-10.8-8.4-1.3-6.5-2-13.5-2-21.3 0-2.4 0-4.9.2-7.5.2-5.2 1.7-10.1 4.3-14.6-1.3-2-1.9-4-1.9-6.1 0-1.2.3-2.4.7-3.5-.1-.8-.4-2.2-.6-3.3-.8-4.3-1.2-6.7-1.2-8.3 0-.7 0-1.3.2-1.8l.1-.2.1-.2c.6-1.2 1.6-2 3-2.5l.2-.1.3-.1c1.2-.2 2.9 0 5.6.7.1.1 1.4.2 2.9.4m0 10.3v6.7c-.8 1.3-1 3-.6 5.2l-2.5 1.4c-.8-1-1.7-1.8-2.2-2.7-2.3-5.1.3-8.6 5.3-10.6m0 14.2L16 40.8c-3.5 5.6-4.7 12.8-4.8 19.2v2.1c.1 4.4.5 8.4.9 11.3.8 5.6.3 9.2 3.5 11 .7.4 1.9.7 3.2.9V39.6zm2.8 79.1l-2.4.1.2 4.7v29.3h-.2V175l4.7 2.4s28.5-.5 29.2-.5c.4.2 1.5.7 1.5.7h.5s16.3-.9 16.5-.9c.4.2 1.3.8 1.3.8s28.8-.4 29.5-.4c.2.1.9.4.9.4l16.1-.2s.1-1 .2-1.4c1.3.6 3.6 1.7 3.6 1.7l16.3-.2s.8-22.2.9-24.6c1.2-.3 4.1-1.1 4.1-1.1l-.5-10.3-3.1-1.1s-.3-.1-.5-.1v-9.9c1-.3 1.9-.9 2.7-1.6l1.7-1.6-.5-7.4-4.4-2.4-118.3 1.4z"/><path clip-path="url(#b)" fill-rule="evenodd" clip-rule="evenodd" d="M141.3 175l.7-20.9c.7-.2 1.3-.4 1.3-.4l3-.8-.1-3.1-.4-7.5-.1-2.5-2.4-.8-1.3-.4v-7.2c.8-.4 1.5-.9 2.1-1.6l1-1 1.3-1.2-.1-1.7-.3-5.6-.1-2.1-1.8-1-2.7-1.5v4.3l.8.5.4 5.6-1 1-.2.2v15l.7.2.4 7.5-1 .3V175zm-1.3-59.8h-1l-20.6.3v3.8l20.7-.3 2.2 1.2v-4.3l-.4-.2-.9-.5zm-21.5 63.9l2.5-.1v-.4l.9.4.8.4h.9l14.1-.2h3.6l.1-3.6v-25.1c-1 .3-2.5.6-2.9.8-.1 3.7-.9 24.3-.9 24.3l-14.1.2-4.4-2.1s-.1.3-.2.3-.3-.6-.4-3.7v8.8zm22.8-51.7v15l-1.3-.4c-.7-.3-1.3-.4-1.8-.5 0-3.2 0-9.7-.1-12.6 1-.3 2.1-.6 3.2-1.5m-22.8 38.8zm0-50.7l-36.7.5v3.8l36.7-.5v-3.8zm-36.7 63.6l20.2-.2h.1l.8.3h.9l14-.2h.8v-12.8c-.1 3.7-.9 9.1-.9 9.1l-14 .2-.9-.4-20.9.2v3.8zm36.7-12.9c-.1 0-.1 0 0 0M81.8 116l-60.1.8H21l-3.7.2.2 3.7.1 2.8V151h-.2v25.2l2.1 1.1 3.2 1.6.8.5h.9l28.3-.5c.3.1.6.3.6.3l.9.4h.9l15.9-.9c.1.1.3.2.4.3l.9.5h1.1l8.4-.1v-3.8l-8.4.1s-2.2-1.3-2.5-1.4v.7l-15.9.9s-1.3-.6-1.5-.7v.1l-29.1.5-3.2-1.7v-19.3h.2v-31.2l-.1-2.8h.5l60.1-.8v-4z"/><path clip-path="url(#b)" fill-rule="evenodd" clip-rule="evenodd" d="M23.6 123.6v30.6l.8.5 13.1-.4c.5 6 .6 11.3-.2 15.1h-2.2c-.4-3.6-.5-7.3-.4-11.1l-.9-.5-10.4.3v14.5l.8.4 25.3-.4.1-23-.9-.6-13.4.6c-2.8-6.8-.5-15.4-.4-23.3l2.7-.1.1 19.7 1.1.4 10.5-.7.1-22.3c-5.5-1.9-12.7-1-20.7-.1-1.8.2-3.3.2-5.1.4m26.3.1c1-.2 1.8-.6 3-.7 4.9-.7 11.2-.4 17.1-.4l.7.4.1 3-4 .9.2 45.6-12.3.7-.9-.4c-.7-15.1-.7-30.3-.1-45.7-1.3-.1-2.3-.4-3.6-.8l-.2-2.6zm22.3-.6c-.6 17.3-1.7 33.6.5 49.5l.7.4 25.4-.3v-49.9l-.7-.5-10.7.7-.4 46.4h-3l-.4-46.4-.9-.3c-3.4-.2-7.3-.5-10.5.4m29.5-.2l16-.6.8.4.2 2.5c-1.4 1.3-3.3.6-4.3 1.4v17.9c1.4.2 2.4.1 3.8.6l.1 3-3.8 1-.8 23.8-10.4.1-2-.9.4-49.2zm19.9.1l16-.6.8.4.2 2.5c-1.3 1.3-3.3.6-4.3 1.4l.1 17.9c1.4.2 2.4.1 3.8.6l.1 3-3.8 1-.8 23.8-10.4.2-2-.9.3-49.3z"/><path clip-path="url(#b)" fill-rule="evenodd" clip-rule="evenodd" fill="#E52A22" d="M122.8 123.6v47.5l8.5-.3 1-22.9 1-1 2.7-.6v-.8l-3.1-.1-.7-.7-.2-19.5 1-.7.9-.3 2.2-.1.1-.9-6.7.3zm-19.9 0V171l8.6-.2.9-23 1.1-1 2.7-.6v-.8l-3.1-.1-.8-.7-.1-19.4 1-.8.8-.2 2.2-.1.1-1-6.7.3zm-29.4.3l1.3-.4h6.6l.4 46.1.9.6h4.5l.8-.8.5-45.6 8-.7v47.4l-22.7.4c-2.1-13.1-1-30.3-.3-47m-22.4.4l3.3-.4 14-.5.1.8-3 .8-.8.8v44.6l-9.8.9c-.7-14.9-.8-30-.3-45.3l-.9-1h-2.6v-.7zm-26.2.4c7.4-.3 15-2.4 22.3-.9v19.9l-8.2.4-.1-18.9-.8-.9-4.6.1-.8.8c-.9 10.9-1.6 21.9 1.3 25.4l13.3-.5v20.3l-22.5.7-.1-12 7.6-.2.6 10.8.8.6h4.1l1-.8c.6-4.7.6-10 .1-16.3l-.8-.7-13.1.1-.1-27.9z"/></svg>