<svg xmlns="http://www.w3.org/2000/svg" viewBox="0 0 489.9 489.9"><path d="M386.5 272.6c-5.5-4.3-62.9-68-78.4-77V30.3c0-16.8-13.6-30.3-30.3-30.3H121.7c-16.8 0-30.3 13.6-30.3 30.3v289.4c0 16.8 13.6 30.3 30.3 30.3h68l-2.8-23.8c-.9-.8-1.5-1.3-2.4-2.1h-30c1-4 1.3-8.4.5-12.9-2.2-12.5-12.1-22.6-24.6-24.9-4.6-.9-9.1-.6-13.2.4V61.4c1.8.3 3.7.5 5.6.5 17 0 30.7-13.8 30.7-30.7 0-1.8-.2-3.6-.5-5.4h93.2c-.3 1.8-.5 3.6-.5 5.4 0 17 13.7 30.7 30.7 30.7 1.9 0 3.8-.2 5.6-.5v283.1c-10.6-7.8-22.4-32.2-22.4-32.2s-5.8-64.9-38.7-64.9c-.9 0-1.7 0-2.6.1 0 0-24.9 2.1-4.3 73.3l9.2 79.1s10.3 42.9 38.7 72.6v8.8c0 4.7 3.8 8.6 8.6 8.6H363c4.4 0 8-3.3 8.5-7.6 3.3-30.8 16.1-145.3 23.6-162.7 1.2-2.8 2.2-5.6 2.6-8.6 1.7-9.8 2.3-27.8-11.2-38.4z"/><circle cx="203.1" cy="80.3" r="18.4"/><path d="M233.6 226.8c18.3-11.3 30.4-31.5 30.4-54.5 0-35.3-28.7-64-64-64s-64 28.7-64 64c0 32.8 24.7 59.8 56.5 63.5 9.4-10.5 26.4-13 41.1-9zM200 137.3c19.9 0 36 16.1 36 36s-16.1 36-36 36-36-16.1-36-36 16.1-36 36-36z"/></svg>