<svg xmlns="http://www.w3.org/2000/svg" viewBox="0 0 56.855 56.855"><path d="M54.28 39.762c3.027-6.356 3.398-13.51 1.045-20.146C50.468 5.92 35.372-1.27 21.676 3.588 15.046 5.94 9.782 10.703 6.784 16.914L3.885 8.739a2 2 0 1 0-3.769 1.338l4.651 13.116a2.006 2.006 0 0 0 1.884 1.331c.226 0 .452-.038.668-.115l13.846-4.911a2 2 0 1 0-1.337-3.77l-9.692 3.438c2.497-5.518 7.073-9.75 12.875-11.809 11.619-4.12 24.421 1.979 28.542 13.597 4.121 11.617-1.979 24.422-13.596 28.543a22.358 22.358 0 0 1-23.852-5.846 2 2 0 1 0-2.929 2.724 26.347 26.347 0 0 0 28.116 6.89c6.639-2.352 11.96-7.147 14.988-13.503z"/></svg>