<svg xmlns="http://www.w3.org/2000/svg" viewBox="0 0 45 30"><path d="M40 .3H5c-2.8 0-5 2.2-5 5v13c0 2.8 2.2 5 5 5h9.8V30l7.7-6.7H40c2.8 0 5-2.2 5-5v-13c0-2.7-2.2-5-5-5zM15.3 11l-2.5 2.2.7 3.2c.1.2-.2.4-.4.3L10.4 15l-2.8 1.7c-.2.1-.4-.1-.4-.3l.7-3.2L5.4 11c-.2-.2-.1-.4.1-.5l3.3-.3 1.3-3c.1-.2.4-.2.5 0l1.3 3 3.3.3c.2.1.3.4.1.5zm12.1 0l-2.5 2.2.7 3.2c.1.2-.2.4-.4.3L22.5 15l-2.8 1.7c-.2.1-.4-.1-.4-.3l.7-3.2-2.5-2.2c-.2-.2-.1-.4.1-.5l3.3-.3 1.3-3c.1-.2.4-.2.5 0l1.3 3 3.3.3c.2.1.3.4.1.5zm12.2 0l-2.5 2.2.7 3.2c.1.2-.2.4-.4.3L34.6 15l-2.8 1.7c-.2.1-.4-.1-.4-.3l.7-3.2-2.5-2.2c-.2-.2-.1-.4.1-.5l3.3-.3 1.3-3c.1-.2.4-.2.5 0l1.3 3 3.3.3c.2.1.3.4.2.5z"/></svg>