<?xml version="1.0" encoding="utf-8"?>
<!-- Generator: Adobe Illustrator 17.1.0, SVG Export Plug-In . SVG Version: 6.00 Build 0)  -->
<!DOCTYPE svg PUBLIC "-//W3C//DTD SVG 1.1//EN" "http://www.w3.org/Graphics/SVG/1.1/DTD/svg11.dtd">
<svg version="1.1" id="Слой_1" xmlns="http://www.w3.org/2000/svg" xmlns:xlink="http://www.w3.org/1999/xlink" x="0px" y="0px"
	 viewBox="0 0 150.5 199.8" enable-background="new 0 0 150.5 199.8" xml:space="preserve">
<g>
	<defs>
		<rect id="SVGID_1_" width="150.5" height="199.8"/>
	</defs>
	<clipPath id="SVGID_2_">
		<use xlink:href="#SVGID_1_"  overflow="visible"/>
	</clipPath>
	<path clip-path="url(#SVGID_2_)" d="M19.4,194l2.3-0.4c0.1,0.4,0.3,0.8,0.6,1c0.3,0.2,0.7,0.3,1.2,0.3c0.6,0,1.1-0.1,1.4-0.3
		c0.2-0.2,0.3-0.4,0.3-0.6c0-0.2-0.1-0.4-0.2-0.4c-0.1-0.1-0.4-0.2-0.8-0.3c-1.8-0.4-3.1-0.8-3.5-1.2c-0.7-0.5-1-1.2-1-2
		c0-0.8,0.3-1.4,0.9-2c0.5-0.5,1.5-0.7,2.8-0.7c1.2,0,2.1,0.2,2.7,0.5c0.6,0.4,1,1,1.2,1.8l-2.2,0.4c-0.1-0.3-0.2-0.6-0.5-0.8
		c-0.3-0.2-0.6-0.2-1.1-0.2c-0.6,0-1,0.1-1.3,0.2c-0.1,0.1-0.2,0.3-0.2,0.5c0,0.2,0.1,0.3,0.2,0.4c0.2,0.1,0.9,0.4,2.1,0.6
		c1.3,0.3,2.1,0.7,2.6,1c0.5,0.4,0.7,1,0.7,1.8c0,0.8-0.4,1.5-1,2.1c-0.7,0.5-1.6,0.9-3,0.9c-1.2,0-2.1-0.2-2.8-0.7
		C20.1,195.4,19.6,194.8,19.4,194"/>
	<path clip-path="url(#SVGID_2_)" d="M33.7,187.7v1.8h-1.6v3.5c0,0.8,0,1.2,0.1,1.3c0,0.1,0.1,0.2,0.2,0.3c0.1,0.1,0.2,0.1,0.4,0.1
		c0.2,0,0.5-0.1,0.9-0.2l0.2,1.8c-0.5,0.2-1.2,0.4-1.8,0.4c-0.4,0-0.8-0.1-1.1-0.2c-0.4-0.1-0.6-0.3-0.8-0.6
		c-0.1-0.2-0.2-0.5-0.3-0.9c0-0.3,0-0.9,0-1.6v-3.9h-1.1v-1.8h1.1v-1.8l2.3-1.3v3.1H33.7z"/>
	<path clip-path="url(#SVGID_2_)" d="M41.1,196.5v-1.4c-0.3,0.5-0.7,0.9-1.3,1.1c-0.5,0.3-1,0.4-1.7,0.4c-0.5,0-1.1-0.1-1.6-0.4
		c-0.4-0.2-0.8-0.6-1-1c-0.2-0.5-0.3-1.2-0.3-2v-5.6h2.3v4c0,1.2,0,2,0.1,2.3c0.1,0.3,0.2,0.5,0.4,0.7c0.2,0.2,0.5,0.2,0.9,0.2
		c0.4,0,0.8-0.1,1.1-0.4c0.3-0.2,0.5-0.5,0.6-0.8c0.1-0.3,0.2-1.1,0.2-2.4v-3.7h2.3v8.8H41.1z"/>
	<path clip-path="url(#SVGID_2_)" d="M44.6,187.7h1.3V187c0-0.7,0.1-1.3,0.3-1.7c0.2-0.4,0.4-0.7,0.8-0.9c0.4-0.2,1-0.3,1.6-0.3
		c0.7,0,1.3,0.1,2,0.3l-0.3,1.6c-0.4-0.1-0.7-0.1-1-0.1c-0.4,0-0.6,0.1-0.7,0.2c-0.2,0.1-0.2,0.4-0.2,0.9v0.6H50v1.8h-1.8v7h-2.3v-7
		h-1.3V187.7z"/>
	<path clip-path="url(#SVGID_2_)" d="M50.2,187.7h1.3V187c0-0.7,0.1-1.3,0.2-1.7c0.2-0.4,0.5-0.7,0.9-0.9c0.4-0.2,1-0.3,1.7-0.3
		c0.7,0,1.3,0.1,1.9,0.3l-0.3,1.6c-0.4-0.1-0.7-0.1-1-0.1c-0.4,0-0.6,0.1-0.7,0.2c-0.1,0.1-0.2,0.4-0.2,0.9v0.6h1.8v1.8h-1.8v7h-2.3
		v-7h-1.3V187.7z"/>
	<rect x="56.7" y="190.9" clip-path="url(#SVGID_2_)" width="4.6" height="2.3"/>
	<path clip-path="url(#SVGID_2_)" d="M61.7,194l2.3-0.4c0.1,0.4,0.3,0.8,0.6,1c0.3,0.2,0.7,0.3,1.3,0.3c0.6,0,1-0.1,1.3-0.3
		c0.2-0.2,0.3-0.4,0.3-0.6c0-0.2-0.1-0.4-0.2-0.4c-0.1-0.1-0.4-0.2-0.7-0.3c-1.9-0.4-3.1-0.8-3.6-1.2c-0.7-0.5-1-1.2-1-2
		c0-0.8,0.3-1.4,0.9-2c0.6-0.5,1.5-0.7,2.8-0.7c1.2,0,2.1,0.2,2.7,0.5c0.6,0.4,1,1,1.2,1.8l-2.1,0.4c-0.1-0.3-0.3-0.6-0.6-0.8
		c-0.2-0.2-0.6-0.2-1.1-0.2c-0.6,0-1.1,0.1-1.4,0.2c-0.2,0.1-0.2,0.3-0.2,0.5c0,0.2,0.1,0.3,0.2,0.4c0.2,0.1,0.9,0.4,2.2,0.6
		c1.2,0.3,2.1,0.7,2.6,1c0.5,0.4,0.7,1,0.7,1.8c0,0.8-0.3,1.5-1,2.1c-0.7,0.5-1.7,0.9-3,0.9c-1.2,0-2.1-0.2-2.8-0.7
		C62.4,195.4,62,194.8,61.7,194"/>
	<path clip-path="url(#SVGID_2_)" d="M74.4,184.3v4.5c0.8-0.9,1.6-1.3,2.7-1.3c0.5,0,1,0.1,1.4,0.2c0.4,0.2,0.8,0.5,1,0.8
		c0.2,0.3,0.4,0.7,0.4,1c0.1,0.4,0.1,0.9,0.1,1.7v5.2h-2.3v-4.7c0-0.9,0-1.5-0.1-1.8c-0.1-0.2-0.2-0.4-0.4-0.6
		c-0.2-0.1-0.6-0.2-0.9-0.2c-0.4,0-0.7,0.1-1,0.2c-0.3,0.2-0.5,0.5-0.7,0.8c-0.1,0.4-0.2,0.9-0.2,1.7v4.4H72v-12.2H74.4z"/>
	<path clip-path="url(#SVGID_2_)" d="M86.4,187.5c1.3,0,2.4,0.4,3.3,1.3c0.8,0.8,1.2,2,1.2,3.2c0,1.4-0.4,2.5-1.3,3.3
		c-0.9,0.9-1.9,1.3-3.2,1.3v-1.9c0.6,0,1.2-0.3,1.5-0.7c0.4-0.4,0.6-1.1,0.6-2c0-0.9-0.2-1.5-0.6-2c-0.4-0.5-0.9-0.7-1.5-0.7V187.5z
		 M81.8,191.9c0-0.8,0.2-1.5,0.5-2.3c0.4-0.7,1-1.3,1.7-1.7c0.7-0.4,1.5-0.5,2.3-0.5v1.9c-0.6,0-1.1,0.2-1.5,0.7
		c-0.4,0.4-0.6,1.1-0.6,2c0,0.9,0.2,1.5,0.6,2c0.4,0.5,0.9,0.7,1.5,0.7v1.9c-0.8,0-1.5-0.2-2.3-0.6c-0.7-0.4-1.3-0.9-1.7-1.6
		C82,193.8,81.8,192.9,81.8,191.9"/>
	<path clip-path="url(#SVGID_2_)" d="M97,187.5c0.2-0.1,0.4-0.1,0.6-0.1c1,0,1.9,0.4,2.6,1.2c0.7,0.8,1,2,1,3.4c0,1.5-0.4,2.6-1,3.4
		c-0.7,0.8-1.6,1.2-2.6,1.2c-0.3,0-0.4-0.1-0.6-0.1v-1.8H97c0.6,0,1-0.2,1.3-0.7c0.4-0.4,0.6-1.2,0.6-2.2c0-0.9-0.2-1.6-0.6-2
		c-0.4-0.5-0.9-0.7-1.4-0.7V187.5z M92.7,187.7h2.2v1.3c0.2-0.4,0.6-0.8,1.1-1.1c0.3-0.1,0.6-0.3,1-0.3v1.8c-0.6,0-1,0.2-1.4,0.6
		c-0.4,0.5-0.6,1.1-0.6,2c0,1,0.2,1.7,0.6,2.2c0.4,0.4,0.9,0.7,1.4,0.7v1.8c-0.2-0.1-0.5-0.1-0.7-0.2c-0.4-0.2-0.8-0.5-1.2-1v4.4
		h-2.3V187.7z"/>
	<rect x="103.1" y="194.1" clip-path="url(#SVGID_2_)" width="2.3" height="2.3"/>
	<path clip-path="url(#SVGID_2_)" d="M115.5,190.2l-2.3,0.4c0-0.4-0.2-0.8-0.5-1.1c-0.3-0.2-0.7-0.4-1.1-0.4c-0.5,0-1,0.3-1.4,0.6
		c-0.4,0.4-0.5,1.1-0.5,2c0,1,0.2,1.8,0.5,2.2c0.4,0.4,0.8,0.7,1.4,0.7c0.4,0,0.8-0.1,1.1-0.4c0.2-0.2,0.4-0.7,0.6-1.4l2.3,0.4
		c-0.2,1-0.7,1.8-1.4,2.4c-0.7,0.5-1.5,0.8-2.7,0.8c-1.3,0-2.3-0.4-3.1-1.2c-0.8-0.8-1.2-2-1.2-3.4c0-1.5,0.4-2.6,1.2-3.4
		c0.7-0.8,1.8-1.2,3.1-1.2c1,0,1.9,0.2,2.6,0.7C114.8,188.6,115.2,189.3,115.5,190.2"/>
	<path clip-path="url(#SVGID_2_)" d="M121.3,187.5c1.4,0,2.4,0.4,3.3,1.3c0.9,0.8,1.3,2,1.3,3.2c0,1.4-0.4,2.4-1.3,3.3
		c-0.9,0.9-2,1.3-3.3,1.3v-1.9c0.6,0,1.1-0.3,1.5-0.7c0.4-0.4,0.6-1.1,0.6-2c0-0.9-0.2-1.5-0.6-2c-0.4-0.5-0.9-0.7-1.5-0.7V187.5z
		 M116.7,191.9c0-0.8,0.2-1.5,0.6-2.3c0.4-0.7,0.9-1.3,1.6-1.7c0.7-0.4,1.5-0.5,2.3-0.5v1.9c-0.6,0-1.1,0.2-1.5,0.7
		c-0.4,0.4-0.6,1.1-0.6,2c0,0.9,0.2,1.5,0.6,2c0.4,0.5,0.9,0.7,1.5,0.7v1.9c-0.8,0-1.6-0.2-2.3-0.6c-0.7-0.4-1.3-0.9-1.6-1.6
		C116.9,193.8,116.7,192.9,116.7,191.9"/>
	<path clip-path="url(#SVGID_2_)" d="M127.4,187.7h2.2v1.2c0.8-0.9,1.7-1.3,2.7-1.3c0.6,0,1,0.1,1.5,0.3c0.4,0.2,0.7,0.6,1,1
		c0.4-0.4,0.8-0.8,1.2-1c0.4-0.2,0.9-0.3,1.4-0.3c0.7,0,1.2,0.1,1.6,0.4c0.4,0.2,0.8,0.7,1,1.1c0.2,0.4,0.3,1,0.3,1.9v5.6H138v-5.1
		c0-0.9-0.1-1.4-0.3-1.7c-0.2-0.4-0.5-0.5-1-0.5c-0.3,0-0.6,0.1-0.9,0.3c-0.2,0.2-0.5,0.5-0.6,0.9c-0.1,0.4-0.2,1-0.2,1.8v4.2h-2.3
		v-4.8c0-0.9-0.1-1.4-0.1-1.7c0-0.3-0.2-0.4-0.4-0.6c-0.2-0.1-0.4-0.2-0.7-0.2c-0.4,0-0.7,0.1-1,0.2c-0.2,0.2-0.5,0.5-0.6,0.8
		c-0.1,0.4-0.2,1-0.2,1.8v4.3h-2.3V187.7z"/>
	<path clip-path="url(#SVGID_2_)" fill-rule="evenodd" clip-rule="evenodd" d="M149.2,102.6L149.2,102.6l0-7
		c0.3,1.2,0.5,2.5,0.5,3.9c0,1.3-0.1,2.6-0.5,3.9L149.2,102.6L149.2,102.6z M149.2,88.8V63.4c0.8,4.2,1.3,8.5,1.3,12.9
		C150.5,80.4,150,84.6,149.2,88.8 M149.2,102.6L149.2,102.6L149.2,102.6L149.2,102.6v0.8v0c-0.7,3.2-0.7,3.2-3.4,6.4
		c-4.9,8.5-19,8.4-19,8.4l-0.6,50.5L21,170.4c-3.4-1.1-3-46.8-3.9-49.9l-2.3-10c0,0,0.1-7.6-0.3-12.8C6.9,94.7,2.9,88.5,2.2,85.1
		v-0.8l0,0.1l0-0.1V45.1c0.4-1.2,0.9-2.4,1.5-3.6c-0.8-1.9-1.2-3.9-1.2-5.9c0-1.2,0.2-2.4,0.5-3.6c-0.1-0.9-0.3-1.8-0.3-1.9
		c-0.2-0.9-0.3-1.8-0.5-2.6v-11l0.3-0.5c1.3-2.6,3.6-4.6,6.5-5.6l0.7-0.2l0.8-0.2c2-0.3,4.2-0.1,7.4,0.7c0.4,0.1,5.8,0.7,6.4,0.7
		c5.4-3.1,12.3-6.6,24.6-9.5c11.5-2.7,23.2-1.9,34.3-0.6c3.7,0.5,17,3.1,26.5,6.9l0.7,0.3c0,0,0.4,0.1,0.5,0.2
		c2.6-1.2,7.2-3.2,7.2-3.2l0.3-0.1c3-1.2,6.1-1.1,8.9,0.2c2,0.9,4.7,3,6,7.1l0.4,1.2c0,0,0.2,5,0.3,7.5c0.9,1,1.7,2.1,2.6,3.2
		c5.3,7.3,8.3,16.3,9,26.7c0.3,0.9,0.8,2.2,0.8,2.1l0.5,1.4c1,2.8,1.8,5.6,2.3,8.5v25.4c-0.3,1.3-0.5,2.7-0.9,4
		c0.4,0.8,0.7,1.7,0.9,2.8V102.6z M2.2,16.5v11c-0.5-3-0.8-5-0.8-6.6c0,0,0.5-3.7,0.5-3.7L2.2,16.5L2.2,16.5z M2.2,45.1v39.2v0v0.1
		v0.8c-1.5-6.8-2.2-14-2.2-22l0.2-7.6C0.4,51.9,1,48.4,2.2,45.1"/>
	<path clip-path="url(#SVGID_2_)" fill-rule="evenodd" clip-rule="evenodd" fill="#FFFFFF" d="M129.9,111.2v-3.6
		c4.3,0.1,8.2-0.8,10-3.3c0.8-1,1.8-1.9,2.1-3.1c0.9-4-1.3-6.8-1.3-6.8c0.3-0.8-0.2-1.8,0-2.7c3.6-12.8,2.8-24.9-0.9-35.2
		c-0.5-1.5-1-3.3-1.7-4.7c-0.4-10.3-3.3-18-7.6-23.8c-0.3-0.4-0.5-0.8-0.8-1.1v-4.6c1.2,1.3,2.3,2.6,3.4,4.1
		c4.9,6.7,7.7,15.2,8.1,25c0.4,0.9,0.7,1.8,0.9,2.7l0.5,1.6c2.2,6.4,3.4,13.1,3.4,19.9c0,5.7-0.8,11.4-2.4,17.1L144,93
		c0,0.2,0,0.6,0,0.9c0.7,1.2,1.4,3.1,1.4,5.6c0,0.8-0.1,1.7-0.3,2.6c-0.3,1.7-1.3,2.9-2.1,3.8l-0.5,0.5
		C140,110,135.1,111.3,129.9,111.2 M129.9,104.3c3.7,0.1,7.5-0.5,8.6-3.6c0.7-1.6,0.1-4-1.2-7.4c4.1-14.9,3.3-27.6-1.9-39.6l-1-8.6
		c0.2,6.5,0,12.1-1.1,16.3l1,1.2L132,67c1.4,7,0.9,15-2.1,24V104.3z M129.9,82.4c0.8-4.2,1-8.3,0.6-12.3l-0.6,1.3v4.3l0.1,0.4
		l-0.1,0.5V82.4z M129.9,64.8c0.8-0.5,1.8-1.2,2.8-2c-0.4-0.4-1.6-2.2-2.8-3.6V64.8z M129.9,51.9c1.1-0.7,2.4-1.7,3.8-3
		c-0.5-0.5-2.2-2.5-3.8-3.7V51.9z M129.9,37c0.7-0.8,1.6-1.8,2.4-3c-0.4-0.2-1.3-1-2.4-1.7V37z M129.9,22.4v4.6
		c-1.1-1.4-2.2-2.7-3.6-4L126,13c-0.2-0.8-0.6-1.3-1-1.5v-3c0.5,0,1,0.2,1.3,0.4c1.3,0.6,2.2,1.7,2.8,3.5l0.1,0.4
		c0,0,0.3,7.3,0.3,9.2C129.7,22.1,129.8,22.2,129.9,22.4 M129.9,32.4V37c-2.4,2.6-4.2,3-4.6-1c-0.2-0.6-0.3-1.2-0.4-1.7v-2.5
		C125.5,29.8,128,31.1,129.9,32.4 M129.9,45.2v6.7c-2.6,1.6-4.1,1.3-3.8-2.4C125.8,43.4,127.9,43.6,129.9,45.2 M129.9,59.2v5.6
		c-2.6,1.5-4.4,2.1-5,0.7v-2.8l0-0.1C125.4,55.6,127.8,56.9,129.9,59.2 M129.9,71.4v4.3l-0.9-2.5L129.9,71.4z M129.9,76.6v5.8
		c-0.5,2.9-1.3,5.8-2.4,8.8c-0.7,2.2-1.6,4.4-2.6,6.6V79.3l0.1-0.1l2.5-0.9l2-0.6L129.9,76.6z M129.9,91.1c-0.7,2-1.5,4-2.4,6.1
		c-0.8,1.7-1.7,3.6-2.6,5.5v1.2c0.8,0.1,1.7,0.3,2.6,0.4c0.8,0.1,1.6,0.1,2.4,0.1V91.1z M129.9,107.6v3.6c-1.7,0-3.3-0.2-5-0.4v-3.6
		C126.6,107.4,128.3,107.6,129.9,107.6 M125,77.8c1.2-0.3,2.6-0.8,4.1-1.3c-0.5-0.9-2.1-6.1-4.1-6.5V77.8z M125,8.5v3
		c-0.4-0.2-0.9-0.2-1.4,0l-4.5,2.1v-3.2l3.2-1.5h0C123.3,8.5,124.2,8.4,125,8.5 M125,31.8v2.5C124.8,33.2,124.8,32.4,125,31.8
		 M125,62.6v2.8C124.7,64.8,124.7,63.9,125,62.6 M125,70v7.9c-3.5,0.9-5.2,0.2-3.4-3.5C122.8,70.8,123.9,69.7,125,70 M125,79.3v18.6
		c-0.8,1.8-1.6,3.6-2.5,5.5c-0.9-0.5-2.2-1-3.4-1.3V84.6C121,83.3,123,81.6,125,79.3 M125,102.6c-0.2,0.4-0.4,0.7-0.5,1.1
		c0.2,0,0.4,0,0.5,0V102.6z M125,107.1v3.6c-2.1-0.3-4.1-0.8-5.9-1.4v-3.8l0.1,0C120.9,106.2,122.9,106.8,125,107.1 M119,67.8v-1.4
		c1.1-6.4,1.1-13.3,0-19.1V30.5C123.5,43.5,122.3,60.2,119,67.8 M119,19.8v-2.6l2.4-1.2l1.5,0.6l0.4,6.9c0,0-0.4-1.3-2.2-2.6
		C120.5,20.5,119.8,20.1,119,19.8 M119,10.4v3.2l-6.1,2.7c-1.7-0.2-3.6-1-5.6-1.9c-1.2-0.5-2.6-0.9-3.9-1.4v-3
		c1.8,0.6,3.5,1.2,5.2,1.8l0.7,0.3c1.2,0.5,2.3,0.9,3.3,1.2C113.4,12.9,116.6,11.5,119,10.4 M119,17.2v2.6c-1.4-0.7-2.9-1.2-2.9-1.2
		L119,17.2z M119,30.5c-1.6-4.4-3.7-8.3-6.8-11.2c-3-1.1-6-2.2-8.9-3.1v1.5c0.3,0,0.6,0,1-0.1c9,2,12.6,11.5,6.2,16
		c4.3,1,7.2,6.5,8.5,13.6V30.5z M119,66.4v1.4c-0.2,0.4-0.4,0.7-0.5,1L119,66.4z M119,84.6V102c-4.1-1.1-9.2-1.1-11,0.9
		c-2.1,2.2-3.5,3.7-4.7,4.7V87c2,0,4.3,0.1,7.1,0.3C113.2,87.3,116.1,86.6,119,84.6 M119,105.6c-2.8-1.3-5.9-1.7-8-0.5
		c-1.7,1.1-3,2.9-4.9,4.6c-0.7,0.6-1.7,1.1-2.8,1.5v3.5l4.9-2.2l2.3-2.2c0.8-0.9,1.6-1.7,2.2-2.1c0.7-0.5,2.7-0.4,5,0.7l0.1,0.1
		l0.1,0c0.4,0.1,0.7,0.3,1,0.4V105.6z M103.4,85.2V37.4l4.8-1.8c5.4-0.2,9,7.4,9.4,17.8v5.5c-0.4,14.1-4.4,28.7-12.9,26.3H103.4z
		 M103.4,29.7v-10c7.9,1.7,10.3,8.8,5.6,12.5l-1.6,2l-1.5-0.7C105,31.9,104.2,30.7,103.4,29.7 M103.4,10v3c-1.7-0.5-3.4-1.1-5.1-1.6
		v-3C99.9,8.9,101.7,9.4,103.4,10 M103.4,16.2v1.5c-1.8,0.1-3.5,0.2-5.1,0.3v-3.3C99.9,15.1,101.6,15.7,103.4,16.2 M103.4,19.7v10
		c-1.5-1.8-3.2-2.8-5.1-3.5v-6.9C100.1,19.2,101.8,19.4,103.4,19.7 M103.4,37.4v47.8h-5.1V68.9c1.1-8.7,2.4-11,2.8-17
		c0.3-5.1-0.5-8.1-2.8-10v-2.6L103.4,37.4z M103.4,87v20.5c-2.1,1.7-3.2,1.7-5.1,1.5v-1.7c1.4-6.4,1.1-10.9,0-15.5V88
		C99.1,87.3,100.9,87.1,103.4,87 M103.4,111.2v3.5l-0.7,0.3l-4.4,0.7v-3.4C100,112.1,101.8,111.7,103.4,111.2 M98.2,56.8
		c0.5-2.7,0.7-5.2,0.5-7.8c0-0.9-0.2-1.7-0.5-2.5V56.8z M98.2,8.4v3c-0.4-0.1-0.8-0.2-1.1-0.3v-3C97.4,8.2,97.8,8.4,98.2,8.4
		 M98.2,14.7V18c-0.4,0-0.8,0-1.1,0.1v-3.7C97.4,14.4,97.8,14.5,98.2,14.7 M98.2,19.4v6.9c-0.4-0.1-0.7-0.2-1.1-0.3v-6.4
		C97.4,19.5,97.8,19.5,98.2,19.4L98.2,19.4z M98.2,39.3v2.6c-0.4-0.3-0.7-0.5-1.1-0.7l0-0.1v-1.4l0,0L98.2,39.3z M98.2,46.5v10.3
		c-0.3,1.7-0.7,3.4-1.1,5.4l0,0.2V44.6l0,0C97.6,45.2,97.9,45.8,98.2,46.5 M98.2,68.9v16.3h-1.1v-3.7c0-0.1,0-0.3,0-0.4
		C97.4,75.9,97.8,72,98.2,68.9 M98.2,88v3.8c-0.1-0.5-0.3-1.1-0.4-1.6C97.3,89.2,97.5,88.5,98.2,88 M98.2,107.3v1.7
		c-0.1,0-0.3,0-0.4,0C97.9,108.4,98.1,107.8,98.2,107.3 M98.2,112.2v3.4l-1.1,0.1v-3.4l0.3,0C97.6,112.3,97.9,112.3,98.2,112.2
		 M97.1,32.8v-1.4c0.3,0.2,0.4,0.4,0.4,0.5V32C97.5,32.3,97.3,32.5,97.1,32.8 M97.1,8.1v3c-3.8-1-7.6-1.8-10.4-2.4v-3
		C89.4,6.3,93.2,7.1,97.1,8.1 M97.1,14.4V18c-4.3,0.1-8,0-10.4-0.5v-5.7C90.1,12.6,93.6,13.4,97.1,14.4 M97.1,19.6V26
		c-1.9-0.4-4.1-0.5-6.8-0.4l-3.6,0.2v-6.3c0.5,0.1,0.9,0.3,1.4,0.3C91.6,20.3,94.7,20.1,97.1,19.6 M97.1,31.4v1.4
		c-0.5,0.5-1.3,1-2.3,1.7c-1.7,0.7-3.4,1.3-5.2,1.7c0.4-1.3,0.7-3.3,0.7-5.5l3.4-0.1C95.4,30.8,96.6,31.1,97.1,31.4 M97.1,39.8v1.4
		c-0.5-0.3-1.1-0.5-1.7-0.7L97.1,39.8z M97.1,44.6c-1.6-1.9-4.2-3.2-7.6-3.6c-1,0.2-1.9,0.4-2.9,0.5v46.6c2.9-0.7,5.6-1.7,8.3-2.6
		c0.7-6.1,0.3-13.4,1.5-19.9c0.2-1.2,0.5-2.2,0.7-3.3V44.6z M97.1,81.5v3.7h-0.2C96.9,83.9,97,82.7,97.1,81.5 M97.1,112.3v3.4
		l-2.1,0.3l-6.2-0.4l-2.1-0.5v-3.9C88.3,111.6,92.7,112.4,97.1,112.3 M86.6,107.9V90.6c1.7-0.5,3.4-1.1,5.1-1.9
		c5.2-2,6.7,13.5,3.6,20.2C92.7,109.6,89.8,109.2,86.6,107.9 M86.6,36.7v-5.8l1.1,0c0,1.8-0.2,4.2-0.9,5.8
		C86.7,36.7,86.7,36.7,86.6,36.7 M86.6,5.7v3c-1.7-0.4-3.2-0.6-4.1-0.7c-3.9-0.5-8-0.9-12.2-1.1V4c4.3,0.2,8.5,0.6,12.6,1.1
		C83.7,5.2,85,5.4,86.6,5.7 M86.6,11.8v5.7c-1-0.2-1.8-0.5-2.4-0.9c-5.6-0.3-10.1-0.3-13.9,0.4V9.9C75.7,10.1,81.1,10.8,86.6,11.8
		 M86.6,19.5v6.3l-16.3,0.9v-7.4c4.2-0.8,9-0.7,14.2-0.4C85.3,19.1,86,19.3,86.6,19.5 M86.6,30.8v5.8c-0.4,0.1-0.8,0.1-1.1,0.1
		c0.1-1.5,0.2-4.1,0.1-5.9L86.6,30.8z M86.6,41.5v46.6c-3.6,0.9-7.4,1.6-11,1.7c-1.8,0-3.5-0.1-5.3-0.4V40.2
		C75.4,41.9,80.9,42.4,86.6,41.5 M86.6,90.6v17.3c-1.8-0.8-3.8-1.9-5.8-3.3l-10.5-0.2V91.4C75.8,92.3,81.2,92.1,86.6,90.6
		 M86.6,111.3c-0.3-0.1-0.5-0.1-0.6-0.2c-1.9-0.8-4.3-2-6.4-3.4c-3.1-0.2-6.2-0.3-9.3-0.4v2.8l3.7,0.2l7.6,3.6l5.1,1.2V111.3z
		 M70.3,34.7v-3.4c0.8,0,1.6,0,2.6,0l1.6-0.1c-0.1,1.1,0.1,2.6,1.2,4.7c-1.3-0.2-2.7-0.5-4-0.9C71.1,34.9,70.7,34.7,70.3,34.7
		 M70.3,4v2.9c-6.1-0.3-12.5-0.1-18.7,1.3v-3C57.8,4,64.1,3.7,70.3,4 M70.3,9.9V17c-5,0.9-8.7,2.8-12.2,6.6L55.6,25L52,24.9l-0.4,0
		V11.3l0.4,0C57.9,10,64,9.6,70.3,9.9 M70.3,19.3c-1.8,0.3-3.5,0.8-5.1,1.5c-2.5,1-4.2,3.1-6.1,4.5c-2,1.4-4.1,2.1-5.9,2.1
		c-0.5,0-1.1-0.1-1.6-0.1v2.1c1.9,0.6,3.9,1.3,5.9,2.1c-1.8-2.1,1.5-3.5,7.1-4.6l5.7-0.3V19.3z M70.3,31.2v3.4
		C62.9,32.4,62.9,31.3,70.3,31.2 M70.3,40.2v49.1c-5.2-0.8-10.3-2.7-15.1-5.6c-1.6-1.5-2.8-1.9-3.6-3.2V51.3
		c8.2-0.1,10.6-5.9,8.9-15.8C63.7,37.6,66.9,39.2,70.3,40.2 M70.3,91.4c-4.3-0.7-8.7-2.1-13.1-3.9c-2.2-0.8-4.1-0.8-5.3-0.3
		c-0.1,0-0.2,0.1-0.4,0.2v9.6c0.1,0.2,0.2,0.4,0.4,0.6c1.2,2,3,4.2,5.3,6.3l13.1,0.3V91.4z M70.3,107.3v2.8l-5.8-0.3h-5.7l-3.6,1.5
		l-1.7,2.5l-1.9,1.5v-3.1c0.3-0.2,0.7-0.5,1.1-1c1.1-1.1,1.5-2.3,2-3.1c0.4-0.5,1.1-0.8,1.1-0.8C60.7,107.1,65.5,107.2,70.3,107.3
		 M51.6,103.7v-2.4l0.4,0.4l2.2,2.1c-0.8-0.1-1.4-0.1-2.2-0.1L51.6,103.7z M51.6,32.6L51.6,32.6l0.3,0.1L51.6,32.6z M51.6,5.3v3
		c-0.3,0-0.5,0.1-0.8,0.2c-4.8,1.2-8.7,2.4-12,3.6V8.9c3.1-1.2,6.8-2.3,11.2-3.4C50.6,5.5,51.1,5.3,51.6,5.3 M51.6,11.3
		c-4.4,0.9-8.6,2.2-12.8,4v6.9c1.7,0.6,3.5,1.4,5.4,2.3l7.4,0.2V11.3z M51.6,27.3v2.1C46,27.6,41.5,27.1,38.8,29v-3.7
		C40.6,26.1,42.8,26.9,51.6,27.3 M51.6,32.6L51.6,32.6c-5.7-0.8-10.2-0.5-12.8,1.6v-2.7C41.3,30.4,45.5,30.8,51.6,32.6 M51.6,51.3
		v29.3c-0.8-1.3-1.2-3.5-1.1-8.5c0.7-6.4,0-13.5-1.4-20.9C50,51.3,50.8,51.3,51.6,51.3 M51.6,87.5v9.6
		C49.1,92.6,49.3,88.9,51.6,87.5 M51.6,101.3l-0.1-0.1l-3-5.9c-0.3-2.8-0.4-5.7-1.1-7.1c-1.4-2.6-4.2-2.1-8.5-1.9v24.6
		c4.5,0.4,9,0.4,10.3-2.3c-0.6-0.2-0.5-0.9-1.1-1c-8.4-0.9-7-3.8,3.6-4V101.3z M51.6,112.1v3.1l-1.5,1.2c0,0-3.2,0.5-3.8,0.5h-7.5
		v-2.9c4.8,0.1,9.4,0,10.5-0.6C50.4,112.9,50.9,112.7,51.6,112.1 M38.8,83.6V49.1c2.2,0.8,4.9,1.4,7.9,1.8
		c1.8,6.4,1.6,15.9,1.6,20.7c0,7.2-1.7,9.1-6.2,10.8C41.2,82.9,40,83.3,38.8,83.6 M38.8,8.9V12c-2.3,0.9-4.3,1.8-6.1,2.7v-3.3
		C34.5,10.6,36.6,9.8,38.8,8.9 M38.8,15.4v6.9c-2.2-0.7-4.2-1.2-6.1-1.5v-2.4C34.7,17.3,36.7,16.3,38.8,15.4 M38.8,25.3V29
		c-2.2-0.2-4.2-0.4-6.1-0.5v-5c2.1,0.2,3.5,0.8,4.4,1.1C37.8,24.8,38.3,25.1,38.8,25.3 M38.8,31.5v2.7c-1,0.8-1.7,1.8-2.2,3.2
		C36.1,34.3,36.8,32.4,38.8,31.5 M38.8,49.1v34.5c-1.8,0.5-3.9,0.9-6.1,1.3V45.1C34.1,46.8,36.2,48.1,38.8,49.1 M38.8,86.3v24.6
		c-2.2-0.2-4.3-0.4-6.1-0.5V86.9L38.8,86.3L38.8,86.3z M38.8,114.1v2.9h-3.1h-3v-3.2C34.7,113.9,36.8,114,38.8,114.1 M32.7,34.3v-1
		h0.9C33.6,33.3,33.1,33.8,32.7,34.3 M32.7,11.5v3.3c-1.5,0.8-3,1.5-4.3,2.3v-3.4C29.7,13,31.1,12.2,32.7,11.5 M32.7,18.4v2.4
		c-1.1-0.1-2.2-0.3-3.4-0.3C30.5,19.8,31.6,19.1,32.7,18.4 M32.7,23.5v5c-1.5,0-3,0-4.3,0v-5.1C30.1,23.3,31.5,23.4,32.7,23.5
		 M32.7,33.3v1c-0.2,0.3-0.5,0.7-0.6,0.9c-0.3,0.8-0.2-1.9-0.2-1.9H32.7z M32.7,45.1v39.8c-1.4,0.2-2.8,0.3-4.3,0.4V43.9
		c0.5-0.5,1-0.9,1.5-1.4l1.3-0.8C31.4,43,31.9,44.1,32.7,45.1 M32.7,86.9v23.5h-1.2c-1.5-4.1-2.6-8-3.1-11.6V87.3L32.7,86.9z
		 M32.7,113.8v3.2h-2.1c0,0-1,0-2.2-0.2v-3.3C29.6,113.6,31.1,113.7,32.7,113.8 M28.4,110L28.4,110H29c-0.2-0.6-0.4-1.2-0.6-1.7V110
		z M28.4,13.7V17c-1,0.6-1.9,1.1-2.9,1.7h-0.2v-3.2C26.2,14.9,27.3,14.3,28.4,13.7 M28.4,23.4v5.1c-1.1,0.1-2.1,0.2-3.1,0.3v-5
		c1-0.1,2-0.3,3-0.4H28.4z M28.4,43.9v41.4c-0.5,0-1.1,0.1-1.6,0.1c-0.4-0.2-0.8-1-1.1-2.3c-0.2-0.8-0.3-1.7-0.5-2.7V48.9
		c0-0.1,0-0.1,0-0.2c0.1-0.5,0.2-0.9,0.4-1.3C26.3,45.8,27.3,44.8,28.4,43.9 M28.4,87.3v11.5c-0.7-4.1-0.8-8-0.4-11.5H28.4z
		 M28.4,108.2c-2.6-7.5-3-14.3-2.5-20.7l-0.6,0.1V105l0.3,3.2c0.9,1.2,1.7,1.6,2.9,1.7V108.2z M28.4,113.5v3.3
		c-0.7-0.1-1.4-0.2-2.1-0.3c-0.3-0.1-0.7-0.1-1-0.2V113C25.8,113.1,26.9,113.3,28.4,113.5 M25.2,43.8v-1.7l0.5,0.1l1.3,0.3
		c-0.5,0.3-0.9,0.6-1.3,0.8C25.5,43.5,25.4,43.6,25.2,43.8 M25.2,37.2V33c0.6,0,1.4,0,2.2,0.1l-0.3,2.5l0.3,2.7
		C26.6,38,25.8,37.6,25.2,37.2 M24.3,21.4l-5.5-0.7v2.2C20.5,22.2,22.4,21.7,24.3,21.4 M25.2,15.5v3.2L18.8,18v-2.9l6,0.7L25.2,15.5
		z M25.2,23.8v5c-3,0.5-5.2,1.6-6.4,3.3v-6.7C20.7,24.7,22.8,24.1,25.2,23.8 M25.2,33v4.3C22.3,35.5,22.2,33.2,25.2,33 M25.2,42.1
		v1.7c-4.5,4.1-2.4,11-3,22.9c-0.4,7.7,0.6,15.1,2,19.2c-1.4,0-3.5-0.1-5.4-0.5V39.6l0.9-0.4l3.4,2.4L25.2,42.1z M25.2,48.9
		c-0.9,3.6-0.8,9.4-0.8,15.1c0,6,0.3,12.2,0.8,16.4V48.9z M25.2,87.6V105l-1.5-17.3L25.2,87.6z M25.2,113c-0.3-0.1-0.4-0.2-0.5-0.2
		c-0.8-1-2-0.9-2.2-1.9L21,90.7c0-0.9-0.5-1.6-1.3-2.1c-0.3,0-0.5-0.1-0.8-0.1l0,17.5l0.4,5.8l0,0.2c0,0,0.9,3.1,1.5,3.3
		c0.4,0.2,2.7,0.6,4.4,0.9V113z M18.8,20.7l-4-0.5l-1.5,1.4l0.7,4.7c1-1.4,2.8-2.5,4.8-3.4V20.7z M18.8,15.1V18l-3.5-0.4
		c-2.5-0.7-3.8-0.9-4.5-0.7c-0.5,0.2-0.9,0.4-1.2,0.9c-0.5,1.6,1.6,10.7,1.7,12.6C9.9,34,11,37,13.2,39.6c-2.9,4.3-4.7,9.3-4.9,14.9
		c-0.5,9.9-0.1,19.3,1.8,28c0.6,2.9,3,5,8.6,6l0,17.5l-1-14.1c-6.3-1.2-10-4-10.8-8.4C5.6,77,4.9,70,4.9,62.2c0-2.4,0-4.9,0.2-7.5
		c0.2-5.2,1.7-10.1,4.3-14.6c-1.3-2-1.9-4-1.9-6.1c0-1.2,0.3-2.4,0.7-3.5c-0.1-0.8-0.4-2.2-0.6-3.3c-0.8-4.3-1.2-6.7-1.2-8.3
		c0-0.7,0-1.3,0.2-1.8l0.1-0.2l0.1-0.2c0.6-1.2,1.6-2,3-2.5l0.2-0.1l0.3-0.1c1.2-0.2,2.9,0,5.6,0.7C16,14.8,17.3,14.9,18.8,15.1
		 M18.8,25.4v6.7c-0.8,1.3-1,3-0.6,5.2l-2.5,1.4c-0.8-1-1.7-1.8-2.2-2.7C11.2,30.9,13.8,27.4,18.8,25.4 M18.8,39.6L16,40.8
		c-3.5,5.6-4.7,12.8-4.8,19.2v2.1c0.1,4.4,0.5,8.4,0.9,11.3c0.8,5.6,0.3,9.2,3.5,11c0.7,0.4,1.9,0.7,3.2,0.9V39.6z"/>
	<path clip-path="url(#SVGID_2_)" fill-rule="evenodd" clip-rule="evenodd" fill="#FFFFFF" d="M21.6,118.7l-2.4,0.1l0.2,4.7v29.3
		h-0.2V175l4.7,2.4c0,0,28.5-0.5,29.2-0.5c0.4,0.2,1.5,0.7,1.5,0.7l0.5,0c0,0,16.3-0.9,16.5-0.9c0.4,0.2,1.3,0.8,1.3,0.8
		s28.8-0.4,29.5-0.4c0.2,0.1,0.9,0.4,0.9,0.4l16.1-0.2c0,0,0.1-1,0.2-1.4c1.3,0.6,3.6,1.7,3.6,1.7l16.3-0.2c0,0,0.8-22.2,0.9-24.6
		c1.2-0.3,4.1-1.1,4.1-1.1l-0.5-10.3l-3.1-1.1c0,0-0.3-0.1-0.5-0.1c0-1.9,0-8.5,0-9.9c1-0.3,1.9-0.9,2.7-1.6l1.7-1.6l-0.5-7.4
		l-4.4-2.4L21.6,118.7z"/>
	<path clip-path="url(#SVGID_2_)" fill-rule="evenodd" clip-rule="evenodd" d="M141.3,175l0.7-20.9c0.7-0.2,1.3-0.4,1.3-0.4l3-0.8
		l-0.1-3.1l-0.4-7.5l-0.1-2.5l-2.4-0.8l-1.3-0.4v-2.8v-4.4c0.8-0.4,1.5-0.9,2.1-1.6h0l1-1l1.3-1.2l-0.1-1.7l-0.3-5.6l-0.1-2.1
		l-1.8-1l-2.7-1.5v4.3l0.8,0.5l0.4,5.6l-1,1c0,0-0.1,0.1-0.2,0.2v11v4l0.7,0.2l0.4,7.5l-1,0.3V175z M140,115.2h-1l-20.6,0.3v3.8
		l20.7-0.3l2.2,1.2v-4.3l-0.4-0.2L140,115.2z M118.5,179.1l2.5-0.1l0-0.4l0.9,0.4l0.8,0.4h0.9l14.1-0.2l3.6,0l0.1-3.6l0-0.5v-24.6
		c-1,0.3-2.5,0.6-2.9,0.8c-0.1,3.7-0.9,24.3-0.9,24.3l-14.1,0.2l-4.4-2.1c0,0-0.1,0.3-0.2,0.3c-0.1,0-0.3-0.6-0.4-3.7V179.1z
		 M141.3,127.4v11v4l-1.3-0.4c-0.7-0.3-1.3-0.4-1.8-0.5c0-3.2,0-9.7-0.1-12.6C139.1,128.6,140.2,128.3,141.3,127.4 M118.5,166.2
		L118.5,166.2L118.5,166.2L118.5,166.2z M118.5,115.5L81.8,116v3.8l36.7-0.5V115.5z M81.8,179.1l20.2-0.2l0.1,0l0.8,0.3h0.9l14-0.2
		h0.8v-8.9v-2.6v-1.3c-0.1,3.7-0.9,9.1-0.9,9.1l-14,0.2l-0.9-0.4v0l-20.9,0.2V179.1z M118.5,166.2L118.5,166.2L118.5,166.2
		L118.5,166.2C118.4,166.2,118.4,166.2,118.5,166.2 M81.8,116l-60.1,0.8h-0.1h-0.1l-0.5,0l-3.7,0.2l0.2,3.7l0.1,2.8v27.5h-0.2v3.6
		v19.3v2.3l2.1,1.1l3.2,1.6l0.8,0.5l0.9,0l28.3-0.5c0.3,0.1,0.6,0.3,0.6,0.3l0.9,0.4l0.9,0l15.9-0.9c0.1,0.1,0.3,0.2,0.4,0.3
		l0.9,0.5l1.1,0l8.4-0.1v-3.8l-8.4,0.1c0,0-2.2-1.3-2.5-1.4v0.7l-15.9,0.9c0,0-1.3-0.6-1.5-0.7v0.1l-29.1,0.5l-3.2-1.7v-19.3h0.2
		v-31.2l-0.1-2.8l0.5,0l60.1-0.8V116z"/>
	<path clip-path="url(#SVGID_2_)" fill-rule="evenodd" clip-rule="evenodd" d="M23.6,123.6v30.6l0.8,0.5l13.1-0.4
		c0.5,6,0.6,11.3-0.2,15.1h-2.2c-0.4-3.6-0.5-7.3-0.4-11.1l-0.9-0.5l-10.4,0.3v14.5l0.8,0.4l25.3-0.4l0.1-23l-0.9-0.6l-13.4,0.6
		c-2.8-6.8-0.5-15.4-0.4-23.3l2.7-0.1l0.1,19.7l1.1,0.4l10.5-0.7l0.1-22.3c-5.5-1.9-12.7-1-20.7-0.1
		C26.9,123.4,25.4,123.4,23.6,123.6 M49.9,123.7c1-0.2,1.8-0.6,3-0.7c4.9-0.7,11.2-0.4,17.1-0.4l0.7,0.4l0.1,3l-4,0.9l0.2,45.6
		l-12.3,0.7l-0.9-0.4c-0.7-15.1-0.7-30.3-0.1-45.7c-1.3-0.1-2.3-0.4-3.6-0.8L49.9,123.7z M72.2,123.1c-0.6,17.3-1.7,33.6,0.5,49.5
		l0.7,0.4l25.4-0.3v-49.9l-0.7-0.5l-10.7,0.7l-0.4,46.4H84l-0.4-46.4l-0.9-0.3C79.3,122.5,75.4,122.2,72.2,123.1 M101.7,122.9
		l16-0.6l0.8,0.4l0.2,2.5c-1.4,1.3-3.3,0.6-4.3,1.4l0,17.9c1.4,0.2,2.4,0.1,3.8,0.6l0.1,3l-3.8,1l-0.8,23.8l-10.4,0.1l-2-0.9
		L101.7,122.9z M121.6,123l16-0.6l0.8,0.4l0.2,2.5c-1.3,1.3-3.3,0.6-4.3,1.4l0.1,17.9c1.4,0.2,2.4,0.1,3.8,0.6l0.1,3l-3.8,1
		l-0.8,23.8l-10.4,0.2l-2-0.9L121.6,123z"/>
	<polygon clip-path="url(#SVGID_2_)" fill-rule="evenodd" clip-rule="evenodd" fill="#E52A22" points="122.8,123.6 122.8,171.1 
		131.3,170.8 132.3,147.9 133.3,146.9 136,146.3 136,145.5 132.9,145.4 132.2,144.7 132,125.2 133,124.5 133.9,124.2 136.1,124.1 
		136.2,123.2 129.5,123.5 	"/>
	<polygon clip-path="url(#SVGID_2_)" fill-rule="evenodd" clip-rule="evenodd" fill="#E52A22" points="102.9,123.6 102.9,171 
		111.5,170.8 112.4,147.8 113.5,146.8 116.2,146.2 116.2,145.4 113.1,145.3 112.3,144.6 112.2,125.2 113.2,124.4 114,124.2 
		116.2,124.1 116.3,123.1 109.6,123.4 	"/>
	<path clip-path="url(#SVGID_2_)" fill-rule="evenodd" clip-rule="evenodd" fill="#E52A22" d="M73.5,123.9l1.3-0.4h6.6l0.4,46.1
		l0.9,0.6h4.5l0.8-0.8l0.5-45.6l8-0.7v47.4l-22.7,0.4C71.7,157.8,72.8,140.6,73.5,123.9"/>
	<path clip-path="url(#SVGID_2_)" fill-rule="evenodd" clip-rule="evenodd" fill="#E52A22" d="M51.1,124.3l3.3-0.4l14-0.5l0.1,0.8
		l-3,0.8l-0.8,0.8v44.6l-9.8,0.9c-0.7-14.9-0.8-30-0.3-45.3l-0.9-1h-2.6V124.3z"/>
	<path clip-path="url(#SVGID_2_)" fill-rule="evenodd" clip-rule="evenodd" fill="#E52A22" d="M24.9,124.7c7.4-0.3,15-2.4,22.3-0.9
		v19.9l-8.2,0.4l-0.1-18.9l-0.8-0.9l-4.6,0.1l-0.8,0.8c-0.9,10.9-1.6,21.9,1.3,25.4l13.3-0.5v20.3l-22.5,0.7l-0.1-12l7.6-0.2
		l0.6,10.8l0.8,0.6h4.1l1-0.8c0.6-4.7,0.6-10,0.1-16.3l-0.8-0.7l-13.1,0.1L24.9,124.7z"/>
</g>
</svg>
