<?xml version="1.0" encoding="iso-8859-1"?>
<!-- Generator: Adobe Illustrator 18.1.1, SVG Export Plug-In . SVG Version: 6.00 Build 0)  -->
<svg fill="#464646" version="1.1" id="Capa_1" xmlns="http://www.w3.org/2000/svg" xmlns:xlink="http://www.w3.org/1999/xlink" x="0px" y="0px"
	 viewBox="0 0 25.75 25.75" style="enable-background:new 0 0 25.75 25.75;" xml:space="preserve">
<g>
	<path  d="M23.508,4.944c-0.2-0.227-0.481-0.358-0.777-0.366c-2.295-0.06-5.199-2.514-7.119-3.477
		c-1.186-0.593-1.968-0.984-2.557-1.087C12.995,0.006,12.935,0,12.875,0s-0.12,0.006-0.179,0.015
		c-0.589,0.103-1.372,0.494-2.556,1.087C8.219,2.064,5.315,4.519,3.019,4.578c-0.295,0.008-0.577,0.14-0.777,0.366
		C2.04,5.17,1.936,5.471,1.951,5.778c0.494,10.023,4.088,16.226,10.396,19.831c0.164,0.093,0.346,0.141,0.528,0.141
		s0.364-0.048,0.528-0.141c6.308-3.605,9.902-9.808,10.396-19.831C23.814,5.471,23.71,5.17,23.508,4.944z M17.583,13.127
		c-0.287,0.787-1.887,4.454-6.47,3.633c-0.136,0.477-0.464,1.514-0.565,1.834c-0.019,0.062-0.049,0.066-0.086,0.008
		c-0.391-0.585-2.644-3.984-2.688-4.054c-0.052-0.074,0.029-0.109,0.029-0.109s4.197-1.924,4.329-1.984
		c0.135-0.063,0.099,0.088,0.099,0.088l-0.543,1.975c0,0,0.643,0.386,1.908,0.358c1.866-0.038,3.489-1.391,3.925-1.786
		C17.592,13.02,17.618,13.035,17.583,13.127z M17.909,9.432c-0.119,0.06-3.651,1.643-4.371,2.003
		c-0.135,0.069-0.099-0.062-0.099-0.062L14,9.34c0,0-0.652-0.392-1.936-0.366c-1.831,0.039-3.428,1.32-3.932,1.77
		c-0.107,0.093-0.142,0.083-0.097-0.038c0.331-0.879,1.977-4.461,6.545-3.642c0.133-0.46,0.441-1.433,0.559-1.806
		c0.046-0.127,0.135-0.021,0.135-0.021l2.68,4.045C17.953,9.282,17.998,9.388,17.909,9.432z"/>
</g>
<g>
</g>
<g>
</g>
<g>
</g>
<g>
</g>
<g>
</g>
<g>
</g>
<g>
</g>
<g>
</g>
<g>
</g>
<g>
</g>
<g>
</g>
<g>
</g>
<g>
</g>
<g>
</g>
<g>
</g>
</svg>
