<svg version="1" xmlns="http://www.w3.org/2000/svg" width="666.667" height="666.667" viewBox="0 0 500.000000 500.000000"><path d="M281.7 14.6c-.1.1-4.9.4-10.7.8-11.1.7-12.2.8-26.5 3.2-49.9 8.3-96.4 32.9-130.4 68.7-7 7.3-7.6 10.1-4.3 19.2 2.7 7.4 2.7 7.5 6.3 7.5 2.4 0 4.2-.7 5.6-2.3 18.2-20.4 64.8-44.1 94.8-48.2 2.2-.3 5.6-.8 7.5-1.1 5.6-1 27.9-1.2 35-.3 26.6 3.2 46.4 12.1 62.8 28.1 16.3 15.9 24.4 35.5 24.6 59.3.1 17-2.9 28-10.5 39.2-11.4 16.7-23.8 20.3-62.1 17.9-6.4-.4-12.7-.9-14-1.1-1.3-.2-5.2-.6-8.8-1-3.6-.4-7.6-.8-9-1-1.4-.1-5-.6-8-.9-3-.4-6.2-.9-7-1.1-.8-.2-4-.7-7-1.1-3-.4-6.4-.8-7.5-.9-24.2-3.3-35.7-2.2-48.7 4.7-7.2 3.8-15.4 11.6-20.6 19.3-3.6 5.5-14.2 25.5-14.2 26.9 0 .5-1.2 3.3-6.5 15.1-3 6.7-8.7 22.6-9.1 25.5-.5 2.7.1 3.8 4.5 8.1 2.7 2.7 5.6 4.9 6.4 4.9.8 0 3.1-2 5.2-4.6 8-9.7 14.5-14.1 25.2-16.8 5.9-1.6 23.8-1.6 42.3-.2 3 .3 9.8.8 15 1.1 5.2.4 10.6.8 12 1 20.3 2.5 52.2 2.5 60.5.1 12.1-3.6 23.5-11 32-20.5 1.6-1.9 3.7-4.2 4.6-5 1.5-1.5 11.1-14.2 15.4-20.5 3.7-5.3 6.9-3.8 6.1 2.9-.2 1.6-.7 6.3-1.1 10.3-.3 4.1-.8 8.2-1 9.1-.2 1-.6 4.2-1 7.1-.4 2.9-.9 6.2-1.1 7.4-.2 1.2-.7 3.4-1 5.1-7.1 39.5-22.8 82.9-39.9 110.5-23.2 37.3-49.3 59.6-80 68.5-11.9 3.4-12.7 3.5-29 4-20.4.5-35.7-2.8-51.7-11.2-19.5-10.2-29.8-21.7-39.1-43.4-3.5-8.2-8.9-26.7-10.3-35.4-.3-2.2-.7-4.5-.8-5.1-.1-.7-.8-1.9-1.6-2.9-1.3-1.6-4.3-1.6-14.3-.1-2.6.3-4.3 3.4-5.1 8.9-.4 2.7-.9 5.7-1.1 6.7-.2.9-.6 3.5-1 5.6-1.1 7.2-1.5 9.9-2 12.4-.3 1.4-.7 4.1-1 6-.3 1.9-1.2 7.1-2 11.5-.7 4.4-1.6 9.8-2 12-.3 2.2-1.2 8-2.1 13-.8 4.9-1.7 10.3-2 11.9-.6 3.9 1.3 7.9 5 10 23.7 13.7 53.5 24.6 79.1 29 24 4.2 56.3 5 78.5 2.1 27.5-3.6 51-9.9 73.1-19.6 48-21 85.2-52.3 111.3-93.4 24.1-38 42.7-96.6 47.1-148 .4-3.9.8-7.6 1.1-8.3 1.5-4.6 2.3-53.1 1.1-70.2-.5-8.6-2.8-26.8-4.2-33-.3-1.4-.7-3.7-1-5.2-.3-1.5-.9-3.8-1.5-5.2-.5-1.5-.8-2.6-.5-2.6.2 0-.9-3.7-2.4-8.3-13.9-40.5-34.9-63.1-70.1-75.5-9.3-3.2-23.7-6.8-31.5-7.7-2.7-.4-5.7-.8-6.5-1-4.2-1.2-48.1-2.9-49.3-1.9z"/></svg>